<?xml version="1.0" encoding="utf-8"?>
<!-- Generator: Adobe Illustrator 28.0.0, SVG Export Plug-In . SVG Version: 6.00 Build 0)  -->
<svg version="1.1" id="Layer_1" xmlns="http://www.w3.org/2000/svg" xmlns:xlink="http://www.w3.org/1999/xlink" x="0px" y="0px"
	 viewBox="0 0 3000 298.98" style="enable-background:new 0 0 3000 298.98;" xml:space="preserve">
<style type="text/css">
	.st0{fill:#FFFFFF;}
</style>
<g>
	<rect x="-3000" width="99.66" height="99.66"/>
	<rect x="-3000" y="99.66" class="st0" width="99.66" height="99.66"/>
	<rect x="-3000" y="199.32" width="99.66" height="99.66"/>
	<rect x="-2900.34" class="st0" width="99.66" height="99.66"/>
	<rect x="-2900.34" y="99.66" width="99.66" height="99.66"/>
	<rect x="-2900.34" y="199.32" class="st0" width="99.66" height="99.66"/>
	<rect x="-2798.63" width="99.66" height="99.66"/>
	<rect x="-2798.63" y="99.66" class="st0" width="99.66" height="99.66"/>
	<rect x="-2798.63" y="199.32" width="99.66" height="99.66"/>
	<rect x="-2698.98" class="st0" width="99.66" height="99.66"/>
	<rect x="-2698.98" y="99.66" width="99.66" height="99.66"/>
	<rect x="-2698.98" y="199.32" class="st0" width="99.66" height="99.66"/>
	<rect x="-2599.32" width="99.66" height="99.66"/>
	<rect x="-2599.32" y="99.66" class="st0" width="99.66" height="99.66"/>
	<rect x="-2599.32" y="199.32" width="99.66" height="99.66"/>
	<rect x="-2499.66" class="st0" width="99.66" height="99.66"/>
	<rect x="-2499.66" y="99.66" width="99.66" height="99.66"/>
	<rect x="-2499.66" y="199.32" class="st0" width="99.66" height="99.66"/>
	<rect x="-2400" width="99.66" height="99.66"/>
	<rect x="-2400" y="99.66" class="st0" width="99.66" height="99.66"/>
	<rect x="-2400" y="199.32" width="99.66" height="99.66"/>
	<rect x="-2300.34" class="st0" width="99.66" height="99.66"/>
	<rect x="-2300.34" y="99.66" width="99.66" height="99.66"/>
	<rect x="-2300.34" y="199.32" class="st0" width="99.66" height="99.66"/>
	<rect x="-2198.63" width="99.66" height="99.66"/>
	<rect x="-2198.63" y="99.66" class="st0" width="99.66" height="99.66"/>
	<rect x="-2198.63" y="199.32" width="99.66" height="99.66"/>
	<rect x="-2098.98" class="st0" width="99.66" height="99.66"/>
	<rect x="-2098.98" y="99.66" width="99.66" height="99.66"/>
	<rect x="-2098.98" y="199.32" class="st0" width="99.66" height="99.66"/>
	<rect x="-1999.32" width="99.66" height="99.66"/>
	<rect x="-1999.32" y="99.66" class="st0" width="99.66" height="99.66"/>
	<rect x="-1999.32" y="199.32" width="99.66" height="99.66"/>
	<rect x="-1899.66" class="st0" width="99.66" height="99.66"/>
	<rect x="-1899.66" y="99.66" width="99.66" height="99.66"/>
	<rect x="-1899.66" y="199.32" class="st0" width="99.66" height="99.66"/>
	<rect x="-1800" width="99.66" height="99.66"/>
	<rect x="-1800" y="99.66" class="st0" width="99.66" height="99.66"/>
	<rect x="-1800" y="199.32" width="99.66" height="99.66"/>
	<rect x="-1700.34" class="st0" width="99.66" height="99.66"/>
	<rect x="-1700.34" y="99.66" width="99.66" height="99.66"/>
	<rect x="-1700.34" y="199.32" class="st0" width="99.66" height="99.66"/>
	<rect x="-1598.63" width="99.66" height="99.66"/>
	<rect x="-1598.63" y="99.66" class="st0" width="99.66" height="99.66"/>
	<rect x="-1598.63" y="199.32" width="99.66" height="99.66"/>
	<rect x="-1498.98" class="st0" width="99.66" height="99.66"/>
	<rect x="-1498.98" y="99.66" width="99.66" height="99.66"/>
	<rect x="-1498.98" y="199.32" class="st0" width="99.66" height="99.66"/>
	<rect x="-1399.32" width="99.66" height="99.66"/>
	<rect x="-1399.32" y="99.66" class="st0" width="99.66" height="99.66"/>
	<rect x="-1399.32" y="199.32" width="99.66" height="99.66"/>
	<rect x="-1299.66" class="st0" width="99.66" height="99.66"/>
	<rect x="-1299.66" y="99.66" width="99.66" height="99.66"/>
	<rect x="-1299.66" y="199.32" class="st0" width="99.66" height="99.66"/>
	<rect x="-1200" width="99.66" height="99.66"/>
	<rect x="-1200" y="99.66" class="st0" width="99.66" height="99.66"/>
	<rect x="-1200" y="199.32" width="99.66" height="99.66"/>
	<rect x="-1100.34" class="st0" width="99.66" height="99.66"/>
	<rect x="-1100.34" y="99.66" width="99.66" height="99.66"/>
	<rect x="-1100.34" y="199.32" class="st0" width="99.66" height="99.66"/>
	<rect x="-998.63" width="99.66" height="99.66"/>
	<rect x="-998.63" y="99.66" class="st0" width="99.66" height="99.66"/>
	<rect x="-998.63" y="199.32" width="99.66" height="99.66"/>
	<rect x="-898.98" class="st0" width="99.66" height="99.66"/>
	<rect x="-898.98" y="99.66" width="99.66" height="99.66"/>
	<rect x="-898.98" y="199.32" class="st0" width="99.66" height="99.66"/>
	<rect x="-799.32" width="99.66" height="99.66"/>
	<rect x="-799.32" y="99.66" class="st0" width="99.66" height="99.66"/>
	<rect x="-799.32" y="199.32" width="99.66" height="99.66"/>
	<rect x="-699.66" class="st0" width="99.66" height="99.66"/>
	<rect x="-699.66" y="99.66" width="99.66" height="99.66"/>
	<rect x="-699.66" y="199.32" class="st0" width="99.66" height="99.66"/>
	<rect x="-600" width="99.66" height="99.66"/>
	<rect x="-600" y="99.66" class="st0" width="99.66" height="99.66"/>
	<rect x="-600" y="199.32" width="99.66" height="99.66"/>
	<rect x="-500.34" class="st0" width="99.66" height="99.66"/>
	<rect x="-500.34" y="99.66" width="99.66" height="99.66"/>
	<rect x="-500.34" y="199.32" class="st0" width="99.66" height="99.66"/>
	<rect x="-398.63" width="99.66" height="99.66"/>
	<rect x="-398.63" y="99.66" class="st0" width="99.66" height="99.66"/>
	<rect x="-398.63" y="199.32" width="99.66" height="99.66"/>
	<rect x="-298.98" class="st0" width="99.66" height="99.66"/>
	<rect x="-298.98" y="99.66" width="99.66" height="99.66"/>
	<rect x="-298.98" y="199.32" class="st0" width="99.66" height="99.66"/>
	<rect x="-199.32" width="99.66" height="99.66"/>
	<rect x="-199.32" y="99.66" class="st0" width="99.66" height="99.66"/>
	<rect x="-199.32" y="199.32" width="99.66" height="99.66"/>
	<rect x="-99.66" class="st0" width="99.66" height="99.66"/>
	<rect x="-99.66" y="99.66" width="99.66" height="99.66"/>
	<rect x="-99.66" y="199.32" class="st0" width="99.66" height="99.66"/>
</g>
<g>
	<rect width="99.66" height="99.66"/>
	<rect y="99.66" class="st0" width="99.66" height="99.66"/>
	<rect y="199.32" width="99.66" height="99.66"/>
	<rect x="99.66" class="st0" width="99.66" height="99.66"/>
	<rect x="99.66" y="99.66" width="99.66" height="99.66"/>
	<rect x="99.66" y="199.32" class="st0" width="99.66" height="99.66"/>
	<rect x="201.37" width="99.66" height="99.66"/>
	<rect x="201.37" y="99.66" class="st0" width="99.66" height="99.66"/>
	<rect x="201.37" y="199.32" width="99.66" height="99.66"/>
	<rect x="301.02" class="st0" width="99.66" height="99.66"/>
	<rect x="301.02" y="99.66" width="99.66" height="99.66"/>
	<rect x="301.02" y="199.32" class="st0" width="99.66" height="99.66"/>
	<rect x="400.68" width="99.66" height="99.66"/>
	<rect x="400.68" y="99.66" class="st0" width="99.66" height="99.66"/>
	<rect x="400.68" y="199.32" width="99.66" height="99.66"/>
	<rect x="500.34" class="st0" width="99.66" height="99.66"/>
	<rect x="500.34" y="99.66" width="99.66" height="99.66"/>
	<rect x="500.34" y="199.32" class="st0" width="99.66" height="99.66"/>
	<rect x="600" width="99.66" height="99.66"/>
	<rect x="600" y="99.66" class="st0" width="99.66" height="99.66"/>
	<rect x="600" y="199.32" width="99.66" height="99.66"/>
	<rect x="699.66" class="st0" width="99.66" height="99.66"/>
	<rect x="699.66" y="99.66" width="99.66" height="99.66"/>
	<rect x="699.66" y="199.32" class="st0" width="99.66" height="99.66"/>
	<rect x="801.37" width="99.66" height="99.66"/>
	<rect x="801.37" y="99.66" class="st0" width="99.66" height="99.66"/>
	<rect x="801.37" y="199.32" width="99.66" height="99.66"/>
	<rect x="901.02" class="st0" width="99.66" height="99.66"/>
	<rect x="901.02" y="99.66" width="99.66" height="99.66"/>
	<rect x="901.02" y="199.32" class="st0" width="99.66" height="99.66"/>
	<rect x="1000.68" width="99.66" height="99.66"/>
	<rect x="1000.68" y="99.66" class="st0" width="99.66" height="99.66"/>
	<rect x="1000.68" y="199.32" width="99.66" height="99.66"/>
	<rect x="1100.34" class="st0" width="99.66" height="99.66"/>
	<rect x="1100.34" y="99.66" width="99.66" height="99.66"/>
	<rect x="1100.34" y="199.32" class="st0" width="99.66" height="99.66"/>
	<rect x="1200" width="99.66" height="99.66"/>
	<rect x="1200" y="99.66" class="st0" width="99.66" height="99.66"/>
	<rect x="1200" y="199.32" width="99.66" height="99.66"/>
	<rect x="1299.66" class="st0" width="99.66" height="99.66"/>
	<rect x="1299.66" y="99.66" width="99.66" height="99.66"/>
	<rect x="1299.66" y="199.32" class="st0" width="99.66" height="99.66"/>
	<rect x="1401.37" width="99.66" height="99.66"/>
	<rect x="1401.37" y="99.66" class="st0" width="99.66" height="99.66"/>
	<rect x="1401.37" y="199.32" width="99.66" height="99.66"/>
	<rect x="1501.02" class="st0" width="99.66" height="99.66"/>
	<rect x="1501.02" y="99.66" width="99.66" height="99.66"/>
	<rect x="1501.02" y="199.32" class="st0" width="99.66" height="99.66"/>
	<rect x="1600.68" width="99.66" height="99.66"/>
	<rect x="1600.68" y="99.66" class="st0" width="99.66" height="99.66"/>
	<rect x="1600.68" y="199.32" width="99.66" height="99.66"/>
	<rect x="1700.34" class="st0" width="99.66" height="99.66"/>
	<rect x="1700.34" y="99.66" width="99.66" height="99.66"/>
	<rect x="1700.34" y="199.32" class="st0" width="99.66" height="99.66"/>
	<rect x="1800" width="99.66" height="99.66"/>
	<rect x="1800" y="99.66" class="st0" width="99.66" height="99.66"/>
	<rect x="1800" y="199.32" width="99.66" height="99.66"/>
	<rect x="1899.66" class="st0" width="99.66" height="99.66"/>
	<rect x="1899.66" y="99.66" width="99.66" height="99.66"/>
	<rect x="1899.66" y="199.32" class="st0" width="99.66" height="99.66"/>
	<rect x="2001.37" width="99.66" height="99.66"/>
	<rect x="2001.37" y="99.66" class="st0" width="99.66" height="99.66"/>
	<rect x="2001.37" y="199.32" width="99.66" height="99.66"/>
	<rect x="2101.02" class="st0" width="99.66" height="99.66"/>
	<rect x="2101.02" y="99.66" width="99.66" height="99.66"/>
	<rect x="2101.02" y="199.32" class="st0" width="99.66" height="99.66"/>
	<rect x="2200.68" width="99.66" height="99.66"/>
	<rect x="2200.68" y="99.66" class="st0" width="99.66" height="99.66"/>
	<rect x="2200.68" y="199.32" width="99.66" height="99.66"/>
	<rect x="2300.34" class="st0" width="99.66" height="99.66"/>
	<rect x="2300.34" y="99.66" width="99.66" height="99.66"/>
	<rect x="2300.34" y="199.32" class="st0" width="99.66" height="99.66"/>
	<rect x="2400" width="99.66" height="99.66"/>
	<rect x="2400" y="99.66" class="st0" width="99.66" height="99.66"/>
	<rect x="2400" y="199.32" width="99.66" height="99.66"/>
	<rect x="2499.66" class="st0" width="99.66" height="99.66"/>
	<rect x="2499.66" y="99.66" width="99.66" height="99.66"/>
	<rect x="2499.66" y="199.32" class="st0" width="99.66" height="99.66"/>
	<rect x="2601.37" width="99.66" height="99.66"/>
	<rect x="2601.37" y="99.66" class="st0" width="99.66" height="99.66"/>
	<rect x="2601.37" y="199.32" width="99.66" height="99.66"/>
	<rect x="2701.02" class="st0" width="99.66" height="99.66"/>
	<rect x="2701.02" y="99.66" width="99.66" height="99.66"/>
	<rect x="2701.02" y="199.32" class="st0" width="99.66" height="99.66"/>
	<rect x="2800.68" width="99.66" height="99.66"/>
	<rect x="2800.68" y="99.66" class="st0" width="99.66" height="99.66"/>
	<rect x="2800.68" y="199.32" width="99.66" height="99.66"/>
	<rect x="2900.34" class="st0" width="99.66" height="99.66"/>
	<rect x="2900.34" y="99.66" width="99.66" height="99.66"/>
	<rect x="2900.34" y="199.32" class="st0" width="99.66" height="99.66"/>
</g>
<g>
	<rect x="3000" width="99.66" height="99.66"/>
	<rect x="3000" y="99.66" class="st0" width="99.66" height="99.66"/>
	<rect x="3000" y="199.32" width="99.66" height="99.66"/>
	<rect x="3099.66" class="st0" width="99.66" height="99.66"/>
	<rect x="3099.66" y="99.66" width="99.66" height="99.66"/>
	<rect x="3099.66" y="199.32" class="st0" width="99.66" height="99.66"/>
	<rect x="3201.37" width="99.66" height="99.66"/>
	<rect x="3201.37" y="99.66" class="st0" width="99.66" height="99.66"/>
	<rect x="3201.37" y="199.32" width="99.66" height="99.66"/>
	<rect x="3301.02" class="st0" width="99.66" height="99.66"/>
	<rect x="3301.02" y="99.66" width="99.66" height="99.66"/>
	<rect x="3301.02" y="199.32" class="st0" width="99.66" height="99.66"/>
	<rect x="3400.68" width="99.66" height="99.66"/>
	<rect x="3400.68" y="99.66" class="st0" width="99.66" height="99.66"/>
	<rect x="3400.68" y="199.32" width="99.66" height="99.66"/>
	<rect x="3500.34" class="st0" width="99.66" height="99.66"/>
	<rect x="3500.34" y="99.66" width="99.66" height="99.66"/>
	<rect x="3500.34" y="199.32" class="st0" width="99.66" height="99.66"/>
	<rect x="3600" width="99.66" height="99.66"/>
	<rect x="3600" y="99.66" class="st0" width="99.66" height="99.66"/>
	<rect x="3600" y="199.32" width="99.66" height="99.66"/>
	<rect x="3699.66" class="st0" width="99.66" height="99.66"/>
	<rect x="3699.66" y="99.66" width="99.66" height="99.66"/>
	<rect x="3699.66" y="199.32" class="st0" width="99.66" height="99.66"/>
	<rect x="3801.37" width="99.66" height="99.66"/>
	<rect x="3801.37" y="99.66" class="st0" width="99.66" height="99.66"/>
	<rect x="3801.37" y="199.32" width="99.66" height="99.66"/>
	<rect x="3901.02" class="st0" width="99.66" height="99.66"/>
	<rect x="3901.02" y="99.66" width="99.66" height="99.66"/>
	<rect x="3901.02" y="199.32" class="st0" width="99.66" height="99.66"/>
	<rect x="4000.68" width="99.66" height="99.66"/>
	<rect x="4000.68" y="99.66" class="st0" width="99.66" height="99.66"/>
	<rect x="4000.68" y="199.32" width="99.66" height="99.66"/>
	<rect x="4100.34" class="st0" width="99.66" height="99.66"/>
	<rect x="4100.34" y="99.66" width="99.66" height="99.66"/>
	<rect x="4100.34" y="199.32" class="st0" width="99.66" height="99.66"/>
	<rect x="4200" width="99.66" height="99.66"/>
	<rect x="4200" y="99.66" class="st0" width="99.66" height="99.66"/>
	<rect x="4200" y="199.32" width="99.66" height="99.66"/>
	<rect x="4299.66" class="st0" width="99.66" height="99.66"/>
	<rect x="4299.66" y="99.66" width="99.66" height="99.66"/>
	<rect x="4299.66" y="199.32" class="st0" width="99.66" height="99.66"/>
	<rect x="4401.37" width="99.66" height="99.66"/>
	<rect x="4401.37" y="99.66" class="st0" width="99.66" height="99.66"/>
	<rect x="4401.37" y="199.32" width="99.66" height="99.66"/>
	<rect x="4501.02" class="st0" width="99.66" height="99.66"/>
	<rect x="4501.02" y="99.66" width="99.66" height="99.66"/>
	<rect x="4501.02" y="199.32" class="st0" width="99.66" height="99.66"/>
	<rect x="4600.68" width="99.66" height="99.66"/>
	<rect x="4600.68" y="99.66" class="st0" width="99.66" height="99.66"/>
	<rect x="4600.68" y="199.32" width="99.66" height="99.66"/>
	<rect x="4700.34" class="st0" width="99.66" height="99.66"/>
	<rect x="4700.34" y="99.66" width="99.66" height="99.66"/>
	<rect x="4700.34" y="199.32" class="st0" width="99.66" height="99.66"/>
	<rect x="4800" width="99.66" height="99.66"/>
	<rect x="4800" y="99.66" class="st0" width="99.66" height="99.66"/>
	<rect x="4800" y="199.32" width="99.66" height="99.66"/>
	<rect x="4899.66" class="st0" width="99.66" height="99.66"/>
	<rect x="4899.66" y="99.66" width="99.66" height="99.66"/>
	<rect x="4899.66" y="199.32" class="st0" width="99.66" height="99.66"/>
	<rect x="5001.37" width="99.66" height="99.66"/>
	<rect x="5001.37" y="99.66" class="st0" width="99.66" height="99.66"/>
	<rect x="5001.37" y="199.32" width="99.66" height="99.66"/>
	<rect x="5101.02" class="st0" width="99.66" height="99.66"/>
	<rect x="5101.02" y="99.66" width="99.66" height="99.66"/>
	<rect x="5101.02" y="199.32" class="st0" width="99.66" height="99.66"/>
	<rect x="5200.68" width="99.66" height="99.66"/>
	<rect x="5200.68" y="99.66" class="st0" width="99.66" height="99.66"/>
	<rect x="5200.68" y="199.32" width="99.66" height="99.66"/>
	<rect x="5300.34" class="st0" width="99.66" height="99.66"/>
	<rect x="5300.34" y="99.66" width="99.66" height="99.66"/>
	<rect x="5300.34" y="199.32" class="st0" width="99.66" height="99.66"/>
	<rect x="5400" width="99.66" height="99.66"/>
	<rect x="5400" y="99.66" class="st0" width="99.66" height="99.66"/>
	<rect x="5400" y="199.32" width="99.66" height="99.66"/>
	<rect x="5499.66" class="st0" width="99.66" height="99.66"/>
	<rect x="5499.66" y="99.66" width="99.66" height="99.66"/>
	<rect x="5499.66" y="199.32" class="st0" width="99.66" height="99.66"/>
	<rect x="5601.37" width="99.66" height="99.66"/>
	<rect x="5601.37" y="99.66" class="st0" width="99.66" height="99.66"/>
	<rect x="5601.37" y="199.32" width="99.66" height="99.66"/>
	<rect x="5701.02" class="st0" width="99.66" height="99.66"/>
	<rect x="5701.02" y="99.66" width="99.66" height="99.66"/>
	<rect x="5701.02" y="199.32" class="st0" width="99.66" height="99.66"/>
	<rect x="5800.68" width="99.66" height="99.66"/>
	<rect x="5800.68" y="99.66" class="st0" width="99.66" height="99.66"/>
	<rect x="5800.68" y="199.32" width="99.66" height="99.66"/>
	<rect x="5900.34" class="st0" width="99.66" height="99.66"/>
	<rect x="5900.34" y="99.66" width="99.66" height="99.66"/>
	<rect x="5900.34" y="199.32" class="st0" width="99.66" height="99.66"/>
</g>
</svg>
