<?xml version="1.0" encoding="UTF-8"?>
<svg id="Layer_1" data-name="Layer 1" xmlns="http://www.w3.org/2000/svg" viewBox="0 0 9000 298.98">
  <defs>
    <style>
      .cls-1, .cls-2 {
        stroke-width: 0px;
      }

      .cls-2 {
        fill: #fff;
      }
    </style>
  </defs>
  <g>
    <rect class="cls-1" width="99.66" height="99.66"/>
    <rect class="cls-2" y="99.66" width="99.66" height="99.66"/>
    <rect class="cls-1" y="199.32" width="99.66" height="99.66"/>
    <rect class="cls-2" x="99.66" width="99.66" height="99.66"/>
    <rect class="cls-1" x="99.66" y="99.66" width="99.66" height="99.66"/>
    <rect class="cls-2" x="99.66" y="199.32" width="99.66" height="99.66"/>
    <rect class="cls-1" x="201.37" width="99.66" height="99.66"/>
    <rect class="cls-2" x="201.37" y="99.66" width="99.66" height="99.66"/>
    <rect class="cls-1" x="201.37" y="199.32" width="99.66" height="99.66"/>
    <rect class="cls-2" x="301.02" width="99.66" height="99.66"/>
    <rect class="cls-1" x="301.02" y="99.66" width="99.66" height="99.66"/>
    <rect class="cls-2" x="301.02" y="199.32" width="99.66" height="99.66"/>
    <rect class="cls-1" x="400.68" width="99.66" height="99.66"/>
    <rect class="cls-2" x="400.68" y="99.66" width="99.66" height="99.66"/>
    <rect class="cls-1" x="400.68" y="199.32" width="99.66" height="99.66"/>
    <rect class="cls-2" x="500.34" width="99.66" height="99.66"/>
    <rect class="cls-1" x="500.34" y="99.66" width="99.66" height="99.66"/>
    <rect class="cls-2" x="500.34" y="199.32" width="99.66" height="99.66"/>
    <rect class="cls-1" x="600" width="99.66" height="99.66"/>
    <rect class="cls-2" x="600" y="99.66" width="99.66" height="99.66"/>
    <rect class="cls-1" x="600" y="199.32" width="99.66" height="99.66"/>
    <rect class="cls-2" x="699.66" width="99.66" height="99.66"/>
    <rect class="cls-1" x="699.66" y="99.66" width="99.66" height="99.66"/>
    <rect class="cls-2" x="699.66" y="199.32" width="99.66" height="99.66"/>
    <rect class="cls-1" x="801.37" width="99.66" height="99.66"/>
    <rect class="cls-2" x="801.37" y="99.66" width="99.66" height="99.66"/>
    <rect class="cls-1" x="801.37" y="199.32" width="99.66" height="99.66"/>
    <rect class="cls-2" x="901.02" width="99.66" height="99.66"/>
    <rect class="cls-1" x="901.02" y="99.66" width="99.66" height="99.66"/>
    <rect class="cls-2" x="901.02" y="199.32" width="99.66" height="99.66"/>
    <rect class="cls-1" x="1000.68" width="99.66" height="99.66"/>
    <rect class="cls-2" x="1000.68" y="99.66" width="99.66" height="99.66"/>
    <rect class="cls-1" x="1000.68" y="199.32" width="99.66" height="99.66"/>
    <rect class="cls-2" x="1100.34" width="99.66" height="99.66"/>
    <rect class="cls-1" x="1100.34" y="99.66" width="99.66" height="99.66"/>
    <rect class="cls-2" x="1100.34" y="199.32" width="99.66" height="99.66"/>
    <rect class="cls-1" x="1200" width="99.66" height="99.66"/>
    <rect class="cls-2" x="1200" y="99.66" width="99.66" height="99.66"/>
    <rect class="cls-1" x="1200" y="199.32" width="99.66" height="99.66"/>
    <rect class="cls-2" x="1299.66" width="99.66" height="99.66"/>
    <rect class="cls-1" x="1299.66" y="99.66" width="99.66" height="99.66"/>
    <rect class="cls-2" x="1299.66" y="199.32" width="99.66" height="99.66"/>
    <rect class="cls-1" x="1401.37" width="99.66" height="99.66"/>
    <rect class="cls-2" x="1401.37" y="99.66" width="99.66" height="99.66"/>
    <rect class="cls-1" x="1401.37" y="199.32" width="99.66" height="99.66"/>
    <rect class="cls-2" x="1501.02" width="99.66" height="99.66"/>
    <rect class="cls-1" x="1501.02" y="99.66" width="99.66" height="99.66"/>
    <rect class="cls-2" x="1501.02" y="199.32" width="99.66" height="99.66"/>
    <rect class="cls-1" x="1600.68" width="99.66" height="99.66"/>
    <rect class="cls-2" x="1600.68" y="99.66" width="99.66" height="99.66"/>
    <rect class="cls-1" x="1600.68" y="199.32" width="99.66" height="99.66"/>
    <rect class="cls-2" x="1700.34" width="99.66" height="99.66"/>
    <rect class="cls-1" x="1700.34" y="99.66" width="99.66" height="99.66"/>
    <rect class="cls-2" x="1700.34" y="199.32" width="99.66" height="99.66"/>
    <rect class="cls-1" x="1800" width="99.66" height="99.66"/>
    <rect class="cls-2" x="1800" y="99.66" width="99.66" height="99.66"/>
    <rect class="cls-1" x="1800" y="199.32" width="99.66" height="99.66"/>
    <rect class="cls-2" x="1899.66" width="99.66" height="99.66"/>
    <rect class="cls-1" x="1899.66" y="99.66" width="99.66" height="99.66"/>
    <rect class="cls-2" x="1899.66" y="199.32" width="99.66" height="99.66"/>
    <rect class="cls-1" x="2001.37" width="99.66" height="99.66"/>
    <rect class="cls-2" x="2001.37" y="99.66" width="99.66" height="99.66"/>
    <rect class="cls-1" x="2001.37" y="199.32" width="99.66" height="99.66"/>
    <rect class="cls-2" x="2101.02" width="99.66" height="99.66"/>
    <rect class="cls-1" x="2101.02" y="99.66" width="99.66" height="99.66"/>
    <rect class="cls-2" x="2101.02" y="199.32" width="99.66" height="99.66"/>
    <rect class="cls-1" x="2200.68" width="99.66" height="99.66"/>
    <rect class="cls-2" x="2200.68" y="99.66" width="99.66" height="99.66"/>
    <rect class="cls-1" x="2200.68" y="199.32" width="99.66" height="99.66"/>
    <rect class="cls-2" x="2300.34" width="99.66" height="99.66"/>
    <rect class="cls-1" x="2300.34" y="99.66" width="99.66" height="99.66"/>
    <rect class="cls-2" x="2300.34" y="199.32" width="99.66" height="99.66"/>
    <rect class="cls-1" x="2400" width="99.66" height="99.66"/>
    <rect class="cls-2" x="2400" y="99.66" width="99.66" height="99.66"/>
    <rect class="cls-1" x="2400" y="199.32" width="99.66" height="99.66"/>
    <rect class="cls-2" x="2499.66" width="99.66" height="99.66"/>
    <rect class="cls-1" x="2499.66" y="99.66" width="99.66" height="99.66"/>
    <rect class="cls-2" x="2499.66" y="199.32" width="99.66" height="99.66"/>
    <rect class="cls-1" x="2601.37" width="99.66" height="99.66"/>
    <rect class="cls-2" x="2601.37" y="99.66" width="99.66" height="99.66"/>
    <rect class="cls-1" x="2601.37" y="199.32" width="99.66" height="99.66"/>
    <rect class="cls-2" x="2701.02" width="99.66" height="99.66"/>
    <rect class="cls-1" x="2701.02" y="99.66" width="99.66" height="99.66"/>
    <rect class="cls-2" x="2701.02" y="199.32" width="99.66" height="99.66"/>
    <rect class="cls-1" x="2800.68" width="99.66" height="99.66"/>
    <rect class="cls-2" x="2800.68" y="99.66" width="99.66" height="99.66"/>
    <rect class="cls-1" x="2800.68" y="199.32" width="99.66" height="99.66"/>
    <rect class="cls-2" x="2900.34" width="99.66" height="99.66"/>
    <rect class="cls-1" x="2900.34" y="99.66" width="99.66" height="99.66"/>
    <rect class="cls-2" x="2900.34" y="199.32" width="99.66" height="99.66"/>
  </g>
  <g>
    <rect class="cls-1" x="3000" width="99.66" height="99.66"/>
    <rect class="cls-2" x="3000" y="99.66" width="99.66" height="99.66"/>
    <rect class="cls-1" x="3000" y="199.32" width="99.66" height="99.66"/>
    <rect class="cls-2" x="3099.66" width="99.66" height="99.66"/>
    <rect class="cls-1" x="3099.66" y="99.66" width="99.66" height="99.66"/>
    <rect class="cls-2" x="3099.66" y="199.32" width="99.66" height="99.66"/>
    <rect class="cls-1" x="3201.37" width="99.66" height="99.66"/>
    <rect class="cls-2" x="3201.37" y="99.66" width="99.66" height="99.66"/>
    <rect class="cls-1" x="3201.37" y="199.32" width="99.66" height="99.66"/>
    <rect class="cls-2" x="3301.02" width="99.66" height="99.66"/>
    <rect class="cls-1" x="3301.02" y="99.66" width="99.66" height="99.66"/>
    <rect class="cls-2" x="3301.02" y="199.32" width="99.66" height="99.66"/>
    <rect class="cls-1" x="3400.68" width="99.66" height="99.66"/>
    <rect class="cls-2" x="3400.68" y="99.66" width="99.66" height="99.66"/>
    <rect class="cls-1" x="3400.68" y="199.32" width="99.66" height="99.66"/>
    <rect class="cls-2" x="3500.34" width="99.66" height="99.66"/>
    <rect class="cls-1" x="3500.34" y="99.66" width="99.66" height="99.66"/>
    <rect class="cls-2" x="3500.34" y="199.32" width="99.66" height="99.66"/>
    <rect class="cls-1" x="3600" width="99.66" height="99.66"/>
    <rect class="cls-2" x="3600" y="99.66" width="99.66" height="99.66"/>
    <rect class="cls-1" x="3600" y="199.32" width="99.66" height="99.66"/>
    <rect class="cls-2" x="3699.66" width="99.66" height="99.66"/>
    <rect class="cls-1" x="3699.66" y="99.66" width="99.66" height="99.66"/>
    <rect class="cls-2" x="3699.66" y="199.32" width="99.66" height="99.66"/>
    <rect class="cls-1" x="3801.37" width="99.66" height="99.66"/>
    <rect class="cls-2" x="3801.37" y="99.66" width="99.66" height="99.66"/>
    <rect class="cls-1" x="3801.37" y="199.32" width="99.66" height="99.66"/>
    <rect class="cls-2" x="3901.02" width="99.66" height="99.66"/>
    <rect class="cls-1" x="3901.02" y="99.66" width="99.66" height="99.66"/>
    <rect class="cls-2" x="3901.02" y="199.32" width="99.66" height="99.66"/>
    <rect class="cls-1" x="4000.68" width="99.66" height="99.66"/>
    <rect class="cls-2" x="4000.68" y="99.66" width="99.66" height="99.66"/>
    <rect class="cls-1" x="4000.68" y="199.32" width="99.66" height="99.66"/>
    <rect class="cls-2" x="4100.34" width="99.66" height="99.66"/>
    <rect class="cls-1" x="4100.34" y="99.66" width="99.66" height="99.66"/>
    <rect class="cls-2" x="4100.34" y="199.32" width="99.66" height="99.66"/>
    <rect class="cls-1" x="4200" width="99.66" height="99.66"/>
    <rect class="cls-2" x="4200" y="99.66" width="99.66" height="99.66"/>
    <rect class="cls-1" x="4200" y="199.32" width="99.66" height="99.66"/>
    <rect class="cls-2" x="4299.66" width="99.66" height="99.66"/>
    <rect class="cls-1" x="4299.66" y="99.66" width="99.66" height="99.66"/>
    <rect class="cls-2" x="4299.66" y="199.32" width="99.66" height="99.66"/>
    <rect class="cls-1" x="4401.37" width="99.66" height="99.66"/>
    <rect class="cls-2" x="4401.37" y="99.66" width="99.66" height="99.66"/>
    <rect class="cls-1" x="4401.37" y="199.32" width="99.66" height="99.66"/>
    <rect class="cls-2" x="4501.02" width="99.66" height="99.66"/>
    <rect class="cls-1" x="4501.02" y="99.66" width="99.66" height="99.66"/>
    <rect class="cls-2" x="4501.02" y="199.32" width="99.66" height="99.66"/>
    <rect class="cls-1" x="4600.68" width="99.66" height="99.66"/>
    <rect class="cls-2" x="4600.68" y="99.66" width="99.66" height="99.66"/>
    <rect class="cls-1" x="4600.68" y="199.32" width="99.66" height="99.66"/>
    <rect class="cls-2" x="4700.34" width="99.66" height="99.66"/>
    <rect class="cls-1" x="4700.34" y="99.66" width="99.66" height="99.66"/>
    <rect class="cls-2" x="4700.34" y="199.32" width="99.66" height="99.66"/>
    <rect class="cls-1" x="4800" width="99.66" height="99.66"/>
    <rect class="cls-2" x="4800" y="99.66" width="99.66" height="99.66"/>
    <rect class="cls-1" x="4800" y="199.32" width="99.66" height="99.66"/>
    <rect class="cls-2" x="4899.66" width="99.66" height="99.66"/>
    <rect class="cls-1" x="4899.66" y="99.66" width="99.66" height="99.66"/>
    <rect class="cls-2" x="4899.66" y="199.32" width="99.66" height="99.66"/>
    <rect class="cls-1" x="5001.37" width="99.66" height="99.66"/>
    <rect class="cls-2" x="5001.37" y="99.66" width="99.66" height="99.66"/>
    <rect class="cls-1" x="5001.37" y="199.32" width="99.66" height="99.66"/>
    <rect class="cls-2" x="5101.02" width="99.66" height="99.66"/>
    <rect class="cls-1" x="5101.02" y="99.66" width="99.66" height="99.66"/>
    <rect class="cls-2" x="5101.02" y="199.32" width="99.66" height="99.66"/>
    <rect class="cls-1" x="5200.68" width="99.66" height="99.66"/>
    <rect class="cls-2" x="5200.68" y="99.66" width="99.66" height="99.66"/>
    <rect class="cls-1" x="5200.68" y="199.32" width="99.66" height="99.66"/>
    <rect class="cls-2" x="5300.34" width="99.66" height="99.66"/>
    <rect class="cls-1" x="5300.34" y="99.66" width="99.66" height="99.66"/>
    <rect class="cls-2" x="5300.34" y="199.32" width="99.66" height="99.66"/>
    <rect class="cls-1" x="5400" width="99.66" height="99.66"/>
    <rect class="cls-2" x="5400" y="99.66" width="99.66" height="99.66"/>
    <rect class="cls-1" x="5400" y="199.32" width="99.66" height="99.66"/>
    <rect class="cls-2" x="5499.66" width="99.66" height="99.66"/>
    <rect class="cls-1" x="5499.66" y="99.66" width="99.66" height="99.66"/>
    <rect class="cls-2" x="5499.66" y="199.32" width="99.66" height="99.66"/>
    <rect class="cls-1" x="5601.37" width="99.66" height="99.66"/>
    <rect class="cls-2" x="5601.37" y="99.66" width="99.66" height="99.66"/>
    <rect class="cls-1" x="5601.37" y="199.32" width="99.66" height="99.66"/>
    <rect class="cls-2" x="5701.02" width="99.66" height="99.66"/>
    <rect class="cls-1" x="5701.02" y="99.66" width="99.66" height="99.66"/>
    <rect class="cls-2" x="5701.02" y="199.32" width="99.66" height="99.66"/>
    <rect class="cls-1" x="5800.68" width="99.66" height="99.66"/>
    <rect class="cls-2" x="5800.68" y="99.66" width="99.66" height="99.66"/>
    <rect class="cls-1" x="5800.68" y="199.32" width="99.66" height="99.66"/>
    <rect class="cls-2" x="5900.34" width="99.66" height="99.66"/>
    <rect class="cls-1" x="5900.34" y="99.66" width="99.66" height="99.66"/>
    <rect class="cls-2" x="5900.34" y="199.32" width="99.66" height="99.66"/>
  </g>
  <g>
    <rect class="cls-1" x="6000" width="99.66" height="99.66"/>
    <rect class="cls-2" x="6000" y="99.66" width="99.66" height="99.66"/>
    <rect class="cls-1" x="6000" y="199.32" width="99.66" height="99.66"/>
    <rect class="cls-2" x="6099.66" width="99.66" height="99.66"/>
    <rect class="cls-1" x="6099.66" y="99.66" width="99.66" height="99.66"/>
    <rect class="cls-2" x="6099.66" y="199.32" width="99.66" height="99.66"/>
    <rect class="cls-1" x="6201.37" width="99.66" height="99.66"/>
    <rect class="cls-2" x="6201.37" y="99.66" width="99.66" height="99.66"/>
    <rect class="cls-1" x="6201.37" y="199.32" width="99.66" height="99.66"/>
    <rect class="cls-2" x="6301.02" width="99.66" height="99.66"/>
    <rect class="cls-1" x="6301.02" y="99.66" width="99.66" height="99.66"/>
    <rect class="cls-2" x="6301.02" y="199.32" width="99.66" height="99.66"/>
    <rect class="cls-1" x="6400.68" width="99.66" height="99.66"/>
    <rect class="cls-2" x="6400.68" y="99.66" width="99.66" height="99.66"/>
    <rect class="cls-1" x="6400.68" y="199.32" width="99.66" height="99.66"/>
    <rect class="cls-2" x="6500.34" width="99.66" height="99.66"/>
    <rect class="cls-1" x="6500.34" y="99.66" width="99.66" height="99.66"/>
    <rect class="cls-2" x="6500.34" y="199.32" width="99.66" height="99.66"/>
    <rect class="cls-1" x="6600" width="99.66" height="99.66"/>
    <rect class="cls-2" x="6600" y="99.66" width="99.66" height="99.66"/>
    <rect class="cls-1" x="6600" y="199.32" width="99.66" height="99.66"/>
    <rect class="cls-2" x="6699.66" width="99.66" height="99.66"/>
    <rect class="cls-1" x="6699.66" y="99.66" width="99.66" height="99.66"/>
    <rect class="cls-2" x="6699.66" y="199.32" width="99.66" height="99.66"/>
    <rect class="cls-1" x="6801.37" width="99.66" height="99.66"/>
    <rect class="cls-2" x="6801.37" y="99.66" width="99.66" height="99.66"/>
    <rect class="cls-1" x="6801.37" y="199.32" width="99.66" height="99.66"/>
    <rect class="cls-2" x="6901.02" width="99.66" height="99.66"/>
    <rect class="cls-1" x="6901.02" y="99.66" width="99.66" height="99.66"/>
    <rect class="cls-2" x="6901.02" y="199.32" width="99.66" height="99.66"/>
    <rect class="cls-1" x="7000.68" width="99.66" height="99.66"/>
    <rect class="cls-2" x="7000.68" y="99.66" width="99.66" height="99.66"/>
    <rect class="cls-1" x="7000.68" y="199.32" width="99.66" height="99.66"/>
    <rect class="cls-2" x="7100.34" width="99.66" height="99.66"/>
    <rect class="cls-1" x="7100.34" y="99.66" width="99.66" height="99.66"/>
    <rect class="cls-2" x="7100.34" y="199.32" width="99.66" height="99.66"/>
    <rect class="cls-1" x="7200" width="99.66" height="99.66"/>
    <rect class="cls-2" x="7200" y="99.66" width="99.66" height="99.66"/>
    <rect class="cls-1" x="7200" y="199.32" width="99.66" height="99.66"/>
    <rect class="cls-2" x="7299.66" width="99.66" height="99.66"/>
    <rect class="cls-1" x="7299.66" y="99.66" width="99.66" height="99.66"/>
    <rect class="cls-2" x="7299.66" y="199.32" width="99.66" height="99.66"/>
    <rect class="cls-1" x="7401.37" width="99.66" height="99.66"/>
    <rect class="cls-2" x="7401.37" y="99.66" width="99.66" height="99.66"/>
    <rect class="cls-1" x="7401.37" y="199.32" width="99.66" height="99.66"/>
    <rect class="cls-2" x="7501.02" width="99.66" height="99.66"/>
    <rect class="cls-1" x="7501.02" y="99.66" width="99.66" height="99.66"/>
    <rect class="cls-2" x="7501.02" y="199.32" width="99.66" height="99.66"/>
    <rect class="cls-1" x="7600.68" width="99.66" height="99.66"/>
    <rect class="cls-2" x="7600.68" y="99.66" width="99.66" height="99.66"/>
    <rect class="cls-1" x="7600.68" y="199.32" width="99.66" height="99.66"/>
    <rect class="cls-2" x="7700.34" width="99.66" height="99.66"/>
    <rect class="cls-1" x="7700.34" y="99.66" width="99.66" height="99.66"/>
    <rect class="cls-2" x="7700.34" y="199.32" width="99.66" height="99.66"/>
    <rect class="cls-1" x="7800" width="99.66" height="99.66"/>
    <rect class="cls-2" x="7800" y="99.66" width="99.66" height="99.66"/>
    <rect class="cls-1" x="7800" y="199.32" width="99.66" height="99.66"/>
    <rect class="cls-2" x="7899.66" width="99.66" height="99.66"/>
    <rect class="cls-1" x="7899.66" y="99.66" width="99.66" height="99.66"/>
    <rect class="cls-2" x="7899.66" y="199.32" width="99.66" height="99.66"/>
    <rect class="cls-1" x="8001.37" width="99.66" height="99.66"/>
    <rect class="cls-2" x="8001.37" y="99.66" width="99.66" height="99.66"/>
    <rect class="cls-1" x="8001.37" y="199.32" width="99.66" height="99.66"/>
    <rect class="cls-2" x="8101.02" width="99.66" height="99.66"/>
    <rect class="cls-1" x="8101.02" y="99.66" width="99.66" height="99.66"/>
    <rect class="cls-2" x="8101.02" y="199.32" width="99.66" height="99.66"/>
    <rect class="cls-1" x="8200.68" width="99.66" height="99.66"/>
    <rect class="cls-2" x="8200.68" y="99.66" width="99.66" height="99.66"/>
    <rect class="cls-1" x="8200.68" y="199.32" width="99.66" height="99.66"/>
    <rect class="cls-2" x="8300.34" width="99.66" height="99.66"/>
    <rect class="cls-1" x="8300.34" y="99.66" width="99.66" height="99.66"/>
    <rect class="cls-2" x="8300.34" y="199.32" width="99.66" height="99.66"/>
    <rect class="cls-1" x="8400" width="99.66" height="99.66"/>
    <rect class="cls-2" x="8400" y="99.66" width="99.66" height="99.66"/>
    <rect class="cls-1" x="8400" y="199.32" width="99.66" height="99.66"/>
    <rect class="cls-2" x="8499.66" width="99.66" height="99.66"/>
    <rect class="cls-1" x="8499.66" y="99.66" width="99.66" height="99.66"/>
    <rect class="cls-2" x="8499.66" y="199.32" width="99.66" height="99.66"/>
    <rect class="cls-1" x="8601.37" width="99.66" height="99.66"/>
    <rect class="cls-2" x="8601.37" y="99.66" width="99.66" height="99.66"/>
    <rect class="cls-1" x="8601.37" y="199.32" width="99.66" height="99.66"/>
    <rect class="cls-2" x="8701.02" width="99.66" height="99.66"/>
    <rect class="cls-1" x="8701.02" y="99.66" width="99.66" height="99.66"/>
    <rect class="cls-2" x="8701.02" y="199.32" width="99.66" height="99.66"/>
    <rect class="cls-1" x="8800.68" width="99.66" height="99.66"/>
    <rect class="cls-2" x="8800.68" y="99.66" width="99.66" height="99.66"/>
    <rect class="cls-1" x="8800.68" y="199.32" width="99.66" height="99.66"/>
    <rect class="cls-2" x="8900.34" width="99.66" height="99.66"/>
    <rect class="cls-1" x="8900.34" y="99.66" width="99.66" height="99.66"/>
    <rect class="cls-2" x="8900.34" y="199.32" width="99.66" height="99.66"/>
  </g>
</svg>