<?xml version="1.0" encoding="UTF-8"?>
<svg id="Layer_1" data-name="Layer 1" xmlns="http://www.w3.org/2000/svg" viewBox="0 0 1826.73 1853.8">
  <defs>
    <style>
      .cls-1 {
        fill: none;
      }

      .cls-1, .cls-2 {
        stroke-width: 0px;
      }
    </style>
  </defs>
  <g>
    <path class="cls-1" d="m1189.78,1569.82c-22.3-26.67-43.98-53.87-66.57-80.28-19.19-22.43-41.94-40.72-70.15-50.98-57.26-20.82-120.34-4.22-164.09,45.08-21.68,24.43-41.94,50.11-62.63,75.41"/>
    <g>
      <path class="cls-1" d="m150.87,162.04c56.63,256,183.83,969.72,5.08,1576.29,21.54-7.2,41.37-19.74,58.85-38.54,32.38-34.84,61.37-72.81,92.32-108.99,39.7-46.4,85.84-84.07,147-97.63,102.54-22.73,189.31,6.45,259.2,84.13,28.69,31.88,54.56,66.28,82.16,99.17,13.87,16.53,28.76,31.97,46.09,43.94,55.07-.42,110.59-.57,165.71-.43,13.08-9.02,25.43-20.23,36.99-33.63,27.13-31.41,52.22-64.57,79.18-96.13,37.04-43.36,79.84-79.58,136.36-94.32,102.6-26.77,191.66-1.67,263.89,75.93,35.94,38.61,67.09,81.66,102.48,120.81,19.97,22.1,43.54,37.44,68.51,45.88-47.12-134.56-169.99-398.88-395.16-692.98C1074.02,751.02,695.46,366.3,150.87,162.04Z"/>
      <path class="cls-1" d="m694.73,1722.21c-21.75-26.06-43.17-52.41-65.63-77.84-29.7-33.63-67.21-51.86-113.14-51.94-50.2-.09-88.45,23.31-119.84,59.7-23.04,26.71-44.71,54.61-67.28,81.74"/>
      <path class="cls-2" d="m156.01,1739.52c178.74-606.58,51.55-1320.3-5.08-1576.29,544.6,204.26,923.15,588.99,1148.67,883.52,225.18,294.09,348.04,558.42,395.16,692.98,34.18,11.56,71.01,10.13,105.01-5.23,1.66-.75,3.18-1.65,4.79-2.45C1699.18,1394.33,1153.43,376.56,93.1,30.38L0,0l25.29,94.62c2.52,9.43,242.5,925.58,21.47,1638.97,8.86,4.15,18.29,7.41,28.48,9.49,28.83,5.87,55.95,4.75,80.77-3.55Z"/>
      <path class="cls-2" d="m1826.73,1837.54l-4.38-33.16c-2.42-18.37-8.4-43.28-17.85-73.54,0,0,0,0,0,0-1.61.81-3.14,1.71-4.79,2.45-58.83,26.59-126.21,11.7-173.53-40.65-35.4-39.16-66.54-82.2-102.48-120.81-72.23-77.6-161.29-102.7-263.89-75.93-56.51,14.75-99.32,50.96-136.36,94.32-26.96,31.56-52.05,64.72-79.18,96.13-43.54,50.41-97.71,71.03-163.43,52.82-36.04-9.98-62.07-34.93-85.37-62.71-27.6-32.88-53.47-67.29-82.16-99.17-69.89-77.68-156.66-106.86-259.2-84.13-61.16,13.56-107.3,51.23-147,97.63-30.96,36.18-59.94,74.15-92.32,108.99-37.61,40.47-85.77,53.07-139.62,42.1-10.19-2.08-19.62-5.34-28.48-9.49-6.37,20.57-13.07,40.99-20.23,61.2l-14.23,40.19c-.82-.33,4.54,1.58,23.25,8.05,15.85,5.48,30.43,8.88,46.29,10.63,17.87,1.06,35.6,2.39,53.83,0,11.82-2.56,23.68-4.97,35.46-7.72,61.1-14.27,107.16-51.45,146.78-97.74,26.66-31.14,51.49-63.85,78.27-94.89,31.39-36.39,69.64-59.79,119.84-59.7,45.92.08,83.44,18.31,113.14,51.94,33.05,37.43,63.8,76.89,96.77,114.39,44.37,50.46,98.54,84.14,166.83,91.59,1.75.19,3.4,1.39,5.09,2.12h53.83c16.81-3.95,33.89-7,50.37-12,54.78-16.62,96.46-52.13,132.7-94.74,28.09-33.03,54.35-67.63,83.11-100.04,43.75-49.31,106.83-65.91,164.09-45.08,28.21,10.26,50.96,28.56,70.15,50.98,29.71,34.73,57.83,70.84,87.87,105.28,44.81,51.36,99.4,86.02,168.8,93.48,1.75.19,22.12,1.79,37.01,1.05,0,0,41.5-1.55,81.01-13.86Z"/>
    </g>
    <path class="cls-2" d="m150.93,163.23c37.93,222.89,67.12,489.39,68.16,790.49,1.08,309.48-27.84,582.91-65.89,810.45,118.97-92.78,237.95-185.55,356.92-278.33,55.67,57.58,132.29,125.43,232.8,187.4,64.41,39.72,125.73,69.07,179.86,90.93,44.48-10.58,98.73-28.38,156.18-59.3,125.52-67.56,199.64-161.87,237.11-218.55,126.21,84.07,266.76,193.78,392.96,277.85-88.97-240.86-306.26-713.29-748.68-1106.96C661.8,391.55,360.42,244.63,150.93,163.23Z"/>
  </g>
  <rect class="cls-2" x="141.36" y="149.9" width="253" height="182" transform="translate(98.44 -77.03) rotate(19.98)"/>
</svg>