<?xml version="1.0" standalone="no"?>
<!DOCTYPE svg PUBLIC "-//W3C//DTD SVG 20010904//EN"
 "http://www.w3.org/TR/2001/REC-SVG-20010904/DTD/svg10.dtd">
<svg version="1.0" xmlns="http://www.w3.org/2000/svg"
 width="8334.000000pt" height="8334.000000pt" viewBox="0 0 8334.000000 8334.000000"
 preserveAspectRatio="xMidYMid meet">

<g transform="translate(0.000000,8334.000000) scale(0.100000,-0.100000)"
fill="#000000" stroke="none">
<path d="M40770 83333 c-3188 -75 -6221 -479 -9225 -1229 -6509 -1626 -12538
-4817 -17575 -9303 -3459 -3081 -6384 -6715 -8647 -10741 -588 -1047 -1175
-2210 -1676 -3320 -2145 -4762 -3373 -9945 -3602 -15210 -52 -1207 -52 -2522
0 -3715 118 -2689 484 -5291 1111 -7908 l95 -398 -16 -71 c-9 -39 -15 -72 -13
-73 2 -2 19 -7 38 -12 34 -9 36 -11 58 -99 114 -453 348 -1284 502 -1784 907
-2956 2110 -5742 3635 -8415 2350 -4119 5388 -7811 8994 -10929 3256 -2815
6954 -5122 10910 -6807 4577 -1950 9450 -3054 14456 -3274 1145 -50 2503 -52
3610 -5 4664 199 9142 1138 13430 2816 1571 614 3169 1357 4670 2171 3191
1731 6135 3870 8830 6417 260 246 1297 1283 1541 1541 2754 2917 4973 6033
6805 9555 1365 2626 2515 5604 3249 8415 45 171 87 333 95 360 22 78 179 726
234 965 523 2274 852 4566 991 6915 104 1769 94 3651 -31 5430 -458 6563
-2459 12900 -5847 18520 -2238 3711 -5025 7039 -8287 9895 -5819 5094 -12918
8463 -20500 9729 -1956 326 -3863 508 -5895 561 -330 9 -1622 11 -1940 3z
m2095 -1263 c1452 -46 2805 -155 4164 -336 7877 -1045 15235 -4382 21241
-9633 1337 -1169 2660 -2492 3831 -3831 2020 -2310 3774 -4844 5216 -7535
1749 -3264 3030 -6727 3829 -10355 466 -2112 779 -4431 884 -6550 5 -113 12
-244 16 -291 l5 -85 -68 -13 c-110 -19 -406 -96 -566 -146 -631 -196 -1240
-510 -1795 -927 -336 -253 -597 -483 -978 -863 -345 -344 -409 -412 -1015
-1085 -506 -563 -708 -778 -970 -1035 -837 -822 -1557 -1257 -2456 -1485 -825
-210 -1819 -206 -2633 11 -861 229 -1591 679 -2414 1489 -279 275 -456 464
-976 1045 -525 586 -707 781 -980 1055 -785 785 -1474 1271 -2279 1607 -1254
522 -2671 621 -4016 281 -396 -100 -743 -228 -1110 -408 -851 -419 -1597
-1027 -2595 -2115 -91 -99 -328 -360 -526 -580 -663 -736 -1000 -1073 -1399
-1400 -730 -599 -1518 -957 -2389 -1085 -954 -140 -1910 -23 -2759 336 -673
285 -1212 668 -1877 1334 -266 266 -409 420 -905 975 -495 554 -638 708 -910
984 -689 699 -1252 1130 -1920 1471 -787 401 -1682 637 -2567 676 -87 4 -158
8 -158 9 0 20 -50 390 -76 563 -177 1181 -514 2340 -999 3437 -107 241 -379
787 -506 1015 -921 1654 -2175 3073 -3699 4185 -1195 872 -2598 1579 -4005
2018 -354 111 -919 264 -1050 286 -22 3 -307 5 -632 3 l-593 -2 0 -8626 0
-8626 -32 7 c-111 22 -374 91 -498 131 -632 201 -1205 528 -1766 1009 -390
334 -723 676 -1455 1495 -404 453 -532 592 -773 844 -1076 1122 -2101 1767
-3287 2066 -1014 256 -2205 251 -3215 -15 -1086 -285 -1981 -814 -2919 -1726
-341 -331 -553 -556 -1105 -1169 -605 -673 -867 -950 -1147 -1212 -539 -506
-986 -827 -1485 -1068 -850 -410 -1880 -555 -2893 -409 -809 117 -1536 418
-2191 906 -508 380 -933 798 -1819 1788 -662 739 -1033 1121 -1436 1476 -872
766 -1724 1217 -2744 1454 -88 20 -162 39 -164 41 -5 5 24 563 50 944 416
6228 2255 12235 5392 17610 2529 4333 5842 8161 9772 11291 4293 3419 9205
5916 14475 7358 3208 877 6465 1346 9870 1421 441 10 1563 4 2005 -10z
m-11179 -28329 c1869 -515 3604 -1457 5030 -2732 200 -178 708 -687 878 -879
1311 -1476 2205 -3182 2671 -5091 115 -472 231 -1122 270 -1509 11 -113 137
-1225 139 -1227 1 -1 54 6 117 17 404 69 835 76 1191 19 68 -11 215 -33 328
-49 252 -37 419 -69 619 -121 597 -154 1174 -423 1659 -776 512 -372 939 -789
1816 -1773 545 -611 858 -944 1131 -1204 632 -601 1111 -948 1745 -1265 1078
-538 2284 -754 3500 -625 1207 127 2262 566 3235 1348 479 385 866 770 1690
1686 774 859 1136 1225 1575 1591 861 720 1719 1077 2805 1169 180 15 653 12
848 -5 912 -80 1716 -370 2426 -875 494 -351 943 -776 1642 -1555 129 -144
349 -389 490 -545 700 -780 1165 -1224 1694 -1620 987 -740 1966 -1106 3240
-1212 224 -18 817 -15 1050 6 1178 106 2157 467 3080 1136 571 414 1095 919
1980 1905 879 981 1278 1379 1750 1744 454 352 921 607 1410 771 163 55 375
113 383 105 11 -11 5 -1266 -7 -1665 -24 -774 -66 -1527 -124 -2219 l-22 -264
-165 -42 c-1004 -257 -1798 -691 -2674 -1464 -175 -154 -706 -685 -927 -926
-91 -99 -326 -360 -523 -580 -198 -220 -436 -483 -531 -585 -215 -231 -620
-630 -782 -773 -919 -804 -1764 -1182 -2893 -1293 -217 -22 -746 -25 -960 -6
-1037 92 -1871 426 -2676 1074 -473 381 -798 707 -1614 1618 -513 573 -671
743 -979 1050 -284 283 -436 424 -671 620 -1006 839 -2109 1302 -3420 1436
-213 22 -787 30 -1021 15 -1006 -66 -1921 -345 -2734 -835 -561 -337 -1156
-831 -1755 -1457 -262 -274 -388 -410 -765 -829 -509 -566 -633 -699 -914
-981 -291 -290 -473 -456 -711 -646 -925 -736 -1926 -1082 -3132 -1083 -1202
0 -2175 342 -3133 1105 -234 186 -387 325 -690 629 -296 296 -453 466 -973
1048 -878 984 -1319 1411 -1902 1845 -875 651 -1925 1058 -3035 1177 -385 41
-907 46 -1265 11 -1597 -155 -2810 -779 -4190 -2155 -288 -287 -423 -431 -850
-905 -949 -1056 -1443 -1523 -2045 -1937 -807 -555 -1691 -821 -2725 -821
-484 0 -864 48 -1310 164 -617 161 -1176 433 -1705 830 -484 362 -886 758
-1730 1704 -181 204 -404 451 -494 550 -216 237 -780 800 -951 949 -1167 1020
-2291 1508 -3745 1627 -193 16 -765 16 -965 0 -859 -68 -1597 -267 -2310 -622
-446 -223 -844 -487 -1265 -839 -442 -370 -836 -767 -1594 -1610 -519 -576
-684 -754 -951 -1020 -558 -558 -995 -899 -1516 -1183 -951 -518 -2195 -685
-3349 -451 -968 197 -1765 640 -2605 1450 -324 313 -534 534 -1131 1199 -535
596 -627 694 -928 995 -472 472 -843 785 -1276 1076 -577 388 -1192 664 -1846
825 l-176 44 -7 69 c-17 180 -57 724 -75 1011 -52 830 -71 1374 -78 2307 l-6
767 109 -28 c164 -43 320 -96 504 -168 716 -283 1409 -794 2173 -1603 299
-316 280 -295 738 -805 754 -840 1082 -1173 1530 -1557 651 -558 1305 -941
2028 -1189 1305 -448 2749 -462 4048 -38 694 227 1316 570 1943 1074 512 412
909 808 1800 1800 428 476 640 704 870 935 814 816 1507 1263 2346 1515 991
298 2165 282 3118 -42 778 -264 1501 -755 2267 -1541 224 -229 413 -435 844
-917 511 -571 639 -710 950 -1021 478 -480 814 -765 1248 -1059 807 -546 1724
-885 2717 -1004 306 -37 773 -61 923 -46 l77 7 0 8649 c0 4757 4 8649 8 8649
5 0 90 -22 188 -49z m-10368 -16836 c1094 -90 1995 -489 2915 -1292 164 -144
568 -543 791 -783 99 -108 352 -387 561 -620 209 -234 436 -486 504 -560 675
-728 1189 -1186 1745 -1554 1355 -897 3085 -1221 4726 -885 504 103 954 258
1400 480 953 475 1715 1123 2980 2534 776 866 1245 1319 1764 1708 801 599
1543 887 2516 979 175 16 707 16 875 0 627 -61 1169 -204 1690 -445 595 -274
1088 -639 1715 -1266 271 -271 410 -422 915 -986 524 -586 646 -717 959 -1031
387 -386 639 -609 971 -857 956 -715 1919 -1091 3108 -1214 248 -26 995 -26
1247 0 533 54 926 136 1380 287 920 306 1641 754 2476 1538 297 278 592 590
1184 1247 769 855 1166 1255 1585 1598 820 672 1625 1014 2650 1123 200 21
654 29 860 15 1023 -72 1882 -389 2674 -989 278 -210 485 -394 817 -726 298
-298 398 -406 904 -971 749 -837 1087 -1185 1500 -1545 1041 -909 2088 -1391
3360 -1549 318 -40 428 -46 840 -45 308 0 448 4 585 17 1476 143 2602 660
3774 1732 335 307 720 709 1301 1360 723 810 1117 1210 1520 1546 439 367 895
644 1363 831 130 52 299 109 305 103 6 -5 -67 -557 -124 -945 -122 -830 -271
-1662 -440 -2460 -64 -299 -195 -887 -210 -941 -2 -8 -54 -37 -117 -64 -302
-129 -684 -338 -982 -537 -447 -298 -821 -614 -1320 -1113 -324 -323 -461
-470 -970 -1040 -486 -545 -631 -702 -919 -994 -335 -338 -740 -705 -972 -880
-202 -151 -284 -191 -631 -301 -155 -49 -234 -82 -405 -167 -279 -138 -368
-175 -518 -217 -546 -154 -1247 -181 -2060 -80 -379 47 -847 174 -1190 324
-125 54 -378 185 -495 255 -256 155 -799 561 -1130 847 -192 167 -404 393
-831 889 -54 63 -229 274 -388 468 -718 875 -982 1149 -1526 1586 -902 724
-1778 1148 -2782 1350 -381 76 -715 113 -1123 122 -1001 22 -1993 -194 -2884
-628 -498 -242 -813 -459 -1356 -934 -82 -72 -249 -214 -370 -317 -387 -327
-529 -470 -885 -888 -796 -934 -881 -1031 -1164 -1319 -390 -395 -745 -691
-1161 -966 -681 -452 -1408 -739 -2110 -834 -229 -31 -370 -41 -606 -41 -414
0 -770 44 -1184 147 -719 178 -1433 538 -2040 1027 -369 298 -777 717 -1495
1536 -368 420 -521 590 -750 835 -1000 1069 -1908 1683 -3045 2060 -1028 341
-2116 410 -3165 199 -852 -170 -1699 -540 -2424 -1059 -321 -229 -583 -453
-920 -785 -286 -282 -487 -498 -833 -894 -645 -738 -841 -954 -1153 -1266
-625 -626 -1159 -1028 -1745 -1315 -496 -242 -1016 -385 -1660 -456 -158 -17
-668 -23 -850 -10 -1016 74 -1831 400 -2655 1062 -488 392 -864 770 -1735
1744 -530 592 -652 724 -989 1060 -396 395 -637 608 -975 859 -496 368 -990
630 -1556 825 -1316 455 -2850 464 -4155 25 -764 -257 -1410 -651 -2155 -1313
-185 -164 -698 -680 -917 -921 -102 -113 -324 -362 -493 -555 -807 -918 -1135
-1256 -1565 -1615 -350 -291 -671 -500 -1045 -681 -562 -271 -1160 -428 -1824
-479 -173 -13 -575 -13 -756 0 -894 65 -1684 331 -2395 805 -287 192 -520 386
-814 680 -241 240 -394 409 -871 965 -400 467 -558 646 -765 870 -735 794
-1425 1368 -2122 1763 -149 85 -443 231 -588 293 -63 26 -117 49 -118 50 -5 3
-51 197 -126 534 -244 1095 -443 2207 -595 3330 -59 433 -68 510 -60 510 15 0
220 -74 347 -126 347 -141 703 -344 1037 -593 520 -388 932 -793 1835 -1801
447 -499 582 -643 929 -991 538 -538 925 -858 1409 -1166 1220 -776 2765
-1088 4272 -862 559 84 1169 266 1645 492 724 344 1349 803 2070 1522 276 275
453 464 909 970 583 648 664 735 990 1061 613 612 1046 943 1596 1218 450 225
884 364 1390 445 404 65 882 81 1318 46z m41677 -5390 c1082 -105 1952 -491
2920 -1296 194 -162 511 -475 706 -700 79 -91 276 -327 438 -525 674 -822
1079 -1271 1391 -1544 278 -243 710 -578 1040 -808 706 -490 1531 -809 2410
-931 390 -54 933 -87 1280 -77 831 24 1446 166 2018 467 106 56 186 88 385
153 349 115 478 176 731 343 286 190 736 582 1207 1053 364 363 459 465 1040
1115 706 790 1045 1138 1438 1474 198 170 555 440 566 429 3 -3 1 -18 -4 -34
-5 -16 -44 -148 -86 -294 -249 -861 -599 -1915 -937 -2820 -1348 -3608 -3213
-7010 -5543 -10110 -1930 -2567 -4161 -4899 -6645 -6946 -5493 -4525 -12056
-7510 -19055 -8664 -2293 -378 -4594 -556 -6935 -537 -1369 12 -2513 73 -3835
207 -5090 516 -10051 2008 -14590 4388 -6001 3146 -11137 7770 -14905 13417
-2278 3414 -4009 7129 -5164 11084 -48 162 -85 299 -83 304 3 10 179 -112 332
-231 287 -223 493 -408 820 -736 320 -321 515 -535 1038 -1144 463 -539 515
-598 755 -854 591 -629 1156 -1065 1817 -1403 1176 -600 2578 -807 3940 -579
853 143 1679 465 2370 927 424 283 783 584 1235 1037 298 297 511 529 1035
1125 470 534 627 706 875 959 612 623 1103 1006 1635 1276 515 262 1097 417
1765 470 174 14 644 14 825 0 870 -67 1625 -314 2283 -746 569 -374 1015 -796
1997 -1894 209 -233 456 -508 549 -610 239 -261 840 -859 1037 -1031 525 -458
973 -766 1474 -1014 682 -338 1369 -521 2195 -586 186 -14 681 -14 875 0 602
46 1207 171 1717 357 981 356 1882 992 2850 2012 308 324 448 480 968 1077
959 1100 1521 1572 2340 1969 676 327 1371 486 2119 486 796 0 1547 -178 2266
-538 721 -360 1321 -861 2166 -1807 74 -82 276 -312 450 -510 466 -531 611
-688 943 -1021 314 -313 449 -437 689 -627 935 -742 2019 -1211 3157 -1366
293 -40 406 -46 820 -46 431 1 530 7 860 59 1083 170 2154 667 3130 1451 546
439 947 851 1730 1776 567 670 612 719 934 993 104 88 296 253 425 365 500
432 686 563 1062 752 623 311 1280 481 2029 523 130 7 549 -4 705 -19z"/>
<path d="M9945 55133 c-22 -1 -103 -7 -180 -13 -791 -61 -1495 -304 -2010
-693 -280 -212 -560 -516 -737 -803 -310 -501 -466 -1147 -428 -1775 18 -293
66 -529 155 -757 109 -277 249 -486 476 -708 326 -318 713 -515 1444 -734 292
-88 601 -163 1515 -365 1160 -257 1383 -315 1780 -462 198 -73 516 -225 634
-304 199 -132 358 -346 440 -591 81 -242 108 -629 62 -888 -49 -276 -170 -523
-351 -718 -370 -397 -1028 -655 -1875 -733 -202 -19 -697 -16 -910 5 -482 48
-843 145 -1182 317 -535 273 -893 714 -1062 1310 -60 211 -85 358 -122 717
l-5 52 -681 0 -681 0 6 -212 c22 -785 251 -1452 687 -1998 109 -136 355 -382
495 -493 739 -591 1696 -877 2935 -877 828 0 1556 129 2235 395 303 118 626
282 834 420 745 496 1113 1264 1113 2320 0 731 -193 1288 -605 1744 -321 354
-748 607 -1370 810 -271 88 -437 129 -1377 340 -1482 333 -1940 452 -2365 616
-457 176 -718 450 -815 855 -58 248 -45 551 37 815 34 113 141 323 221 435 94
133 303 341 422 419 213 142 452 235 757 295 505 101 1210 97 1713 -9 339 -72
621 -185 859 -346 274 -184 451 -386 591 -674 116 -239 190 -502 256 -912 l5
-33 681 0 681 0 -6 188 c-24 735 -236 1352 -626 1822 -199 239 -459 446 -810
643 -589 330 -1278 522 -2071 577 -130 9 -665 11 -765 3z"/>
<path d="M70955 55133 c-22 -1 -103 -7 -180 -13 -791 -61 -1495 -304 -2010
-693 -280 -212 -560 -516 -737 -803 -310 -501 -466 -1147 -428 -1775 18 -293
66 -529 155 -757 109 -277 249 -486 476 -708 326 -318 713 -515 1444 -734 292
-88 601 -163 1515 -365 1160 -257 1383 -315 1780 -462 198 -73 516 -225 634
-304 199 -132 358 -346 440 -591 81 -242 108 -629 62 -888 -49 -276 -170 -523
-351 -718 -370 -397 -1028 -655 -1875 -733 -202 -19 -697 -16 -910 5 -482 48
-843 145 -1182 317 -535 273 -893 714 -1062 1310 -60 211 -85 358 -122 717
l-5 52 -681 0 -681 0 6 -212 c22 -785 251 -1452 687 -1998 109 -136 355 -382
495 -493 739 -591 1696 -877 2935 -877 828 0 1556 129 2235 395 303 118 626
282 834 420 745 496 1113 1264 1113 2320 0 731 -193 1288 -605 1744 -321 354
-748 607 -1370 810 -271 88 -437 129 -1377 340 -1482 333 -1940 452 -2365 616
-457 176 -718 450 -815 855 -58 248 -45 551 37 815 34 113 141 323 221 435 94
133 303 341 422 419 213 142 452 235 757 295 505 101 1210 97 1713 -9 339 -72
621 -185 859 -346 274 -184 451 -386 591 -674 116 -239 190 -502 256 -912 l5
-33 681 0 681 0 -6 188 c-24 735 -236 1352 -626 1822 -199 239 -459 446 -810
643 -589 330 -1278 522 -2071 577 -130 9 -665 11 -765 3z"/>
<path d="M17640 49790 l0 -5080 735 0 735 0 0 2375 0 2375 2735 0 2735 0 0
-2375 0 -2375 735 0 735 0 0 5080 0 5080 -735 0 -735 0 0 -2100 0 -2100 -2735
0 -2735 0 0 2100 0 2100 -735 0 -735 0 0 -5080z"/>
<path d="M45090 49790 l0 -5080 725 0 725 0 0 2181 0 2180 1788 -4 c1268 -3
1820 -7 1902 -15 500 -51 758 -131 992 -307 286 -216 462 -561 517 -1015 6
-47 33 -526 61 -1065 52 -1021 71 -1316 96 -1498 19 -137 56 -281 97 -377 l32
-75 893 -3 892 -2 0 114 0 115 -58 31 c-252 134 -404 427 -466 895 -28 213
-35 350 -66 1172 -16 444 -34 867 -40 938 -36 444 -138 801 -293 1029 -170
251 -496 496 -874 657 -56 24 -100 46 -97 50 2 4 46 30 97 56 398 210 767 536
999 883 185 277 308 626 363 1025 23 164 31 574 16 757 -119 1411 -1036 2227
-2701 2403 -316 33 -474 35 -3032 35 l-2568 0 0 -5080z m5135 3890 c605 -38
982 -177 1276 -469 251 -250 383 -567 420 -1006 20 -237 -2 -575 -52 -785 -86
-369 -260 -639 -524 -815 -289 -193 -631 -304 -1107 -362 -129 -15 -312 -17
-1920 -20 l-1778 -4 0 1736 0 1735 1763 0 c1058 0 1826 -4 1922 -10z"/>
<path d="M56670 49790 l0 -5080 705 0 705 0 0 1769 0 1770 852 768 c468 422
859 773 869 780 14 11 239 -285 1920 -2537 l1904 -2549 948 0 c807 -1 947 1
940 13 -4 8 -1047 1369 -2318 3026 -1270 1656 -2310 3015 -2310 3019 0 4 1008
916 2240 2026 1232 1109 2253 2030 2270 2046 l30 29 -1011 0 -1011 0 -2659
-2480 -2659 -2480 -3 2480 -2 2480 -705 0 -705 0 0 -5080z"/>
<path d="M16465 19245 c-22 -24 -80 -87 -129 -140 l-88 -95 80 -142 c137 -243
145 -331 42 -477 -47 -67 -2323 -2286 -2419 -2358 -72 -55 -138 -77 -206 -70
-57 6 -117 33 -292 134 -69 40 -117 61 -125 57 -21 -13 -278 -247 -278 -253 0
-3 380 -386 845 -851 835 -835 845 -844 864 -825 135 143 240 268 235 278 -4
7 -52 79 -107 161 -55 82 -114 179 -131 215 -55 119 -46 231 28 332 19 26 194
199 389 386 l355 340 234 -231 c326 -322 502 -458 753 -581 251 -124 400 -160
660 -160 155 1 193 4 275 24 278 69 495 196 728 425 277 271 437 548 498 863
23 118 24 346 1 469 -37 205 -136 440 -262 629 -143 213 -247 324 -660 703
-165 152 -512 486 -770 744 -259 257 -473 468 -475 468 -3 0 -23 -20 -45 -45z
m1066 -1569 c91 -61 222 -267 248 -394 18 -86 14 -238 -9 -328 -56 -221 -228
-476 -485 -722 -182 -174 -365 -294 -535 -349 -75 -25 -100 -28 -210 -28 -105
0 -136 4 -193 24 -102 35 -197 105 -345 254 l-133 133 730 700 c421 403 748
709 773 722 53 29 102 25 159 -12z"/>
<path d="M66428 18565 c-168 -32 -373 -116 -550 -226 -212 -131 -439 -340
-734 -674 -87 -99 -210 -238 -273 -310 -63 -71 -312 -328 -553 -571 l-439
-440 141 -133 140 -132 133 75 c173 99 232 120 318 114 86 -6 150 -41 248
-133 142 -135 2236 -2298 2278 -2354 71 -94 88 -175 57 -267 -9 -26 -54 -114
-101 -196 -73 -129 -83 -152 -71 -166 47 -60 243 -272 249 -270 5 2 388 382
852 845 l843 842 -143 131 -143 130 -58 -37 c-31 -20 -111 -73 -177 -116 -179
-119 -253 -147 -349 -133 -89 14 -142 61 -610 552 l-446 468 97 99 c151 152
128 144 267 91 459 -173 1082 -355 1444 -421 134 -25 168 -28 392 -28 216 1
257 3 347 23 375 82 668 276 873 577 52 76 110 188 129 248 l13 38 -108 149
c-59 83 -111 150 -116 150 -5 0 -21 -6 -36 -14 -48 -25 -150 -56 -248 -76
-313 -65 -739 -48 -1404 55 -313 48 -923 165 -937 179 -3 2 9 58 26 125 49
195 64 331 58 521 -6 176 -24 283 -71 425 -137 408 -475 739 -864 846 -102 28
-360 35 -474 14z m-233 -955 c177 -45 380 -175 570 -365 249 -249 385 -505
385 -726 0 -151 -15 -175 -297 -467 l-138 -144 -609 641 c-336 353 -618 654
-628 669 -11 16 -18 46 -18 73 0 39 6 54 39 95 98 122 264 221 411 244 75 12
192 4 285 -20z"/>
<path d="M62453 15302 l-132 -177 -1170 -850 c-644 -467 -1170 -854 -1171
-858 0 -5 53 -76 117 -158 86 -111 121 -148 132 -143 9 3 77 29 151 57 122 45
143 50 220 51 76 1 91 -2 136 -27 28 -16 74 -52 102 -80 69 -71 1913 -2664
1958 -2754 30 -59 37 -83 37 -135 1 -88 -20 -128 -156 -300 l-115 -147 99
-153 c55 -84 104 -157 109 -162 5 -5 355 243 827 586 698 508 902 651 1393
973 316 208 581 383 588 389 10 9 -34 143 -209 641 -121 346 -222 632 -225
634 -3 3 -81 -10 -174 -28 l-170 -34 0 -61 c0 -33 7 -196 16 -361 9 -165 14
-354 12 -420 -4 -128 -15 -162 -77 -244 -36 -49 -861 -705 -871 -695 -19 19
-970 1386 -970 1394 0 5 139 105 310 224 285 198 392 266 420 266 6 0 100 -61
210 -135 109 -74 203 -135 208 -135 23 0 272 182 265 193 -7 12 -833 1159
-839 1166 -2 2 -59 -40 -126 -94 -68 -54 -124 -99 -125 -99 0 -1 19 -102 43
-226 31 -158 42 -231 35 -246 -13 -30 -103 -106 -391 -329 -140 -109 -260
-202 -266 -206 -19 -15 -841 1181 -929 1350 -8 17 -15 48 -15 71 0 32 7 47 33
74 31 33 503 344 582 384 64 32 148 44 221 31 89 -15 174 -62 447 -242 131
-86 244 -157 250 -157 7 1 68 54 136 119 l125 118 -20 26 c-41 56 -889 1086
-894 1086 -3 0 -64 -79 -137 -177z"/>
<path d="M20565 14910 c-743 -77 -1426 -523 -1922 -1255 -648 -958 -670 -1974
-60 -2780 82 -108 278 -308 405 -413 224 -184 532 -364 786 -457 705 -259
1454 -162 2095 272 451 306 880 824 1112 1346 371 829 285 1648 -241 2312 -88
111 -275 296 -399 394 -390 309 -806 497 -1251 566 -128 19 -403 27 -525 15z
m953 -726 c226 -46 442 -215 546 -430 66 -135 81 -214 80 -429 0 -169 -3 -204
-27 -312 -85 -382 -304 -833 -629 -1298 -442 -632 -880 -1009 -1287 -1107
-117 -28 -286 -28 -392 0 -227 61 -425 223 -523 432 -66 138 -79 211 -80 420
0 207 14 297 80 510 134 430 451 981 837 1450 112 136 392 409 507 494 319
236 614 326 888 270z"/>
<path d="M58240 12380 c-410 -209 -749 -381 -753 -382 -8 -3 162 -311 183
-332 6 -6 81 8 187 34 315 76 392 58 508 -120 39 -59 1080 -2130 1071 -2130
-3 0 -2944 1583 -2963 1595 -1 0 -21 88 -43 195 -22 107 -42 195 -43 196 -6 6
-1587 -801 -1587 -810 0 -8 119 -221 166 -297 l22 -36 119 24 c65 13 157 25
205 25 81 1 92 -1 161 -35 118 -58 200 -152 288 -328 134 -268 1297 -2668
1327 -2739 48 -112 56 -214 22 -281 -36 -70 -55 -91 -187 -205 -68 -59 -122
-112 -120 -118 8 -20 151 -341 153 -345 3 -4 1485 747 1498 759 9 9 -162 330
-180 337 -5 2 -93 -17 -194 -42 -215 -53 -279 -57 -356 -21 -101 47 -117 72
-360 566 -413 838 -891 1815 -889 1817 1 2 813 -438 1805 -977 992 -540 1809
-979 1815 -976 13 5 610 468 637 494 17 16 1 42 -286 450 l-304 433 -637 1330
c-350 732 -646 1356 -657 1387 -13 37 -21 84 -22 132 -2 122 22 154 287 391
l38 34 -78 177 c-43 98 -80 177 -83 177 -3 0 -340 -170 -750 -379z"/>
<path d="M25970 11669 c-357 -38 -695 -160 -1001 -360 -660 -432 -1160 -1262
-1285 -2134 -21 -145 -24 -447 -6 -585 52 -393 203 -757 440 -1054 389 -489
1056 -846 1726 -926 114 -14 408 -14 511 0 434 58 821 224 1160 497 563 454
983 1210 1102 1983 24 161 24 502 0 659 -110 699 -521 1250 -1207 1614 -267
141 -586 247 -880 292 -126 19 -442 27 -560 14z m850 -636 c87 -20 231 -89
308 -148 148 -112 257 -300 307 -525 22 -104 31 -362 16 -502 -42 -392 -181
-826 -425 -1333 -423 -875 -911 -1325 -1401 -1292 -225 16 -436 124 -574 295
-66 82 -142 238 -170 352 -114 456 25 1121 393 1875 212 434 392 704 625 935
220 217 439 337 657 358 96 10 178 5 264 -15z"/>
<path d="M52536 9855 c-588 -201 -1070 -366 -1072 -368 -2 -2 27 -84 65 -183
l69 -179 93 5 c208 11 310 6 366 -19 63 -28 121 -89 162 -169 29 -58 992
-2990 1032 -3141 21 -82 24 -157 9 -213 -17 -58 -91 -130 -241 -233 -89 -61
-139 -102 -139 -113 0 -17 95 -350 101 -357 5 -5 2122 715 2133 726 6 5 -18
78 -60 183 l-69 175 -210 -2 -210 -2 -57 28 c-66 32 -107 76 -147 155 -25 50
-955 3010 -995 3168 -9 34 -16 93 -16 130 1 127 39 175 248 316 101 67 132 93
128 106 -3 9 -26 92 -52 185 -26 92 -52 167 -58 167 -6 -1 -492 -165 -1080
-365z"/>
<path d="M30475 9898 c-2 -7 -24 -91 -49 -186 l-45 -173 37 -23 c20 -12 77
-47 126 -77 109 -66 178 -126 213 -186 34 -59 42 -167 19 -265 -15 -63 -926
-3020 -961 -3118 -35 -99 -97 -174 -170 -207 -33 -14 -78 -19 -249 -23 l-209
-5 -61 -177 c-33 -97 -59 -179 -56 -181 3 -3 434 -132 958 -287 856 -252 1017
-303 1584 -500 346 -121 636 -220 643 -220 7 0 195 270 418 600 l405 599 -134
127 c-75 70 -140 124 -147 121 -7 -3 -168 -135 -358 -293 -376 -315 -444 -366
-521 -389 -99 -29 -155 -21 -602 83 -325 77 -422 103 -433 118 -39 51 -33 73
517 1784 287 894 537 1657 555 1695 36 75 86 134 138 162 27 16 58 18 215 17
101 -1 209 -4 240 -8 l57 -6 64 180 c36 104 60 185 55 189 -9 9 -2214 661
-2233 661 -7 0 -14 -6 -16 -12z"/>
<path d="M48263 8750 c-234 -23 -482 -74 -983 -205 -406 -105 -393 -102 -1045
-225 -297 -57 -542 -104 -543 -105 -6 -5 78 -369 86 -376 4 -3 83 -14 176 -23
109 -11 189 -25 224 -38 106 -39 167 -121 201 -269 11 -46 143 -775 292 -1619
237 -1337 272 -1549 273 -1640 1 -172 -21 -199 -270 -329 -92 -49 -170 -95
-173 -102 -4 -14 40 -354 49 -368 5 -9 1946 352 2315 430 561 118 1040 388
1372 774 288 333 467 744 535 1225 20 144 17 583 -5 735 -40 274 -102 517
-184 725 -310 786 -903 1269 -1713 1395 -124 19 -473 28 -607 15z m57 -580
c544 -157 941 -789 1139 -1810 183 -945 52 -1585 -382 -1868 -115 -75 -206
-106 -587 -197 -190 -45 -346 -81 -347 -81 -9 6 -623 3639 -623 3683 1 119 74
204 213 248 137 44 219 55 372 51 106 -3 158 -9 215 -26z"/>
<path d="M38846 8265 c-304 -50 -526 -162 -716 -361 -209 -219 -314 -485 -327
-830 -13 -349 83 -620 389 -1095 l36 -55 -91 -39 c-504 -209 -860 -567 -982
-990 -39 -135 -55 -255 -55 -411 0 -161 17 -278 60 -406 59 -176 137 -304 267
-439 284 -295 745 -459 1286 -459 356 0 666 70 972 220 77 37 184 98 239 134
l99 65 81 -74 c253 -231 547 -415 782 -488 216 -68 447 -80 626 -34 90 24 228
83 255 110 9 10 67 273 75 345 3 20 -7 27 -69 51 -240 94 -467 249 -731 497
-123 116 -322 333 -322 351 0 6 23 50 52 99 123 213 253 521 327 780 55 189
94 377 130 626 34 235 52 288 116 347 66 60 99 70 325 93 113 11 208 23 212
27 4 3 17 82 29 174 16 121 19 171 11 176 -6 3 -390 29 -854 56 -464 26 -844
49 -845 50 -1 0 9 36 22 78 103 323 58 677 -118 937 -154 227 -403 382 -725
451 -130 27 -427 35 -556 14z m539 -510 c245 -64 378 -286 362 -605 -11 -228
-96 -485 -220 -670 -20 -29 -35 -55 -34 -56 1 -1 229 -19 507 -39 278 -21 506
-39 508 -40 6 -5 -28 -306 -54 -485 -52 -354 -186 -928 -215 -918 -33 12 -931
1206 -1191 1584 -222 323 -296 510 -285 724 17 323 198 517 482 519 45 1 107
-6 140 -14z m-825 -2310 c261 -377 645 -893 931 -1248 l178 -222 -21 -22 c-31
-33 -154 -116 -225 -152 -34 -17 -102 -43 -150 -58 -79 -24 -105 -26 -243 -27
-133 -1 -166 2 -234 22 -138 40 -229 94 -333 197 -81 82 -97 104 -147 206 -77
156 -105 280 -113 495 -11 309 44 564 191 878 26 57 50 96 55 90 4 -5 55 -76
111 -159z"/>
</g>
</svg>
