<?xml version="1.0" standalone="no"?>
<!DOCTYPE svg PUBLIC "-//W3C//DTD SVG 20010904//EN"
 "http://www.w3.org/TR/2001/REC-SVG-20010904/DTD/svg10.dtd">
<svg version="1.0" xmlns="http://www.w3.org/2000/svg"
 width="8314.000000pt" height="8326.000000pt" viewBox="0 0 8314.000000 8326.000000"
 preserveAspectRatio="xMidYMid meet">

<g transform="translate(0.000000,8326.000000) scale(0.100000,-0.100000)"
fill="#000000" stroke="none">
<path d="M40680 83254 c-1410 -42 -2205 -91 -3330 -205 -7267 -732 -14210
-3383 -20155 -7698 -3192 -2316 -6024 -5056 -8459 -8184 -1248 -1605 -2408
-3351 -3413 -5137 -753 -1339 -1474 -2809 -2059 -4197 -1906 -4523 -2985
-9287 -3219 -14203 -35 -740 -40 -992 -40 -2000 0 -1129 14 -1638 71 -2565
309 -5079 1544 -10063 3632 -14650 288 -633 774 -1625 1072 -2190 889 -1681
1869 -3267 2963 -4800 2869 -4016 6445 -7506 10532 -10281 5334 -3621 11407
-5937 17785 -6783 2387 -317 4850 -427 7275 -326 5830 244 11475 1692 16685
4278 5723 2841 10745 6995 14632 12102 1261 1657 2416 3436 3401 5240 478 877
970 1862 1379 2760 2088 4587 3323 9571 3632 14650 57 927 71 1436 71 2565 0
1129 -14 1638 -71 2565 -309 5081 -1543 10059 -3632 14650 -289 635 -771 1619
-1072 2190 -887 1678 -1869 3268 -2963 4800 -2869 4016 -6445 7506 -10532
10281 -5698 3868 -12235 6244 -19075 6933 -951 96 -1700 147 -2840 192 -247
10 -2036 20 -2270 13z m2285 -1253 c154 -6 429 -18 610 -26 6005 -281 11828
-1885 17110 -4713 4589 -2456 8666 -5778 12006 -9782 4198 -5033 7102 -10985
8468 -17355 438 -2042 727 -4215 836 -6265 8 -157 17 -326 20 -377 l6 -91 -58
-12 c-951 -191 -1856 -635 -2673 -1314 -472 -392 -862 -785 -1605 -1616 -915
-1023 -1319 -1423 -1820 -1798 -889 -667 -1823 -972 -2980 -972 -1161 0 -2103
309 -2989 979 -503 380 -902 774 -1766 1741 -772 863 -1139 1236 -1600 1622
-1072 900 -2161 1354 -3520 1470 -203 17 -894 17 -1090 0 -841 -75 -1524 -262
-2210 -603 -456 -228 -852 -489 -1280 -846 -238 -198 -370 -321 -685 -637
-313 -314 -454 -465 -925 -991 -705 -788 -1021 -1115 -1390 -1439 -880 -773
-1731 -1157 -2815 -1273 -239 -25 -899 -25 -1125 0 -950 107 -1667 387 -2406
940 -500 373 -908 774 -1779 1747 -931 1040 -1354 1454 -1930 1888 -1020 768
-2093 1156 -3390 1224 -121 6 -221 12 -223 13 -1 1 -13 94 -27 206 -393 3180
-1892 6073 -4235 8172 -1619 1449 -3658 2527 -5785 3057 -132 33 -249 65 -260
70 -13 7 -236 9 -635 8 l-615 -3 -3 -8627 c-1 -4746 -4 -8628 -7 -8628 -23 0
-272 59 -382 90 -863 245 -1582 700 -2408 1525 -247 247 -457 473 -915 985
-483 540 -645 715 -915 989 -717 727 -1312 1179 -2015 1530 -737 367 -1495
562 -2380 612 -251 14 -747 6 -990 -16 -1177 -106 -2180 -493 -3125 -1203
-322 -242 -597 -485 -956 -842 -294 -293 -473 -486 -969 -1040 -501 -560 -650
-720 -925 -995 -428 -430 -757 -706 -1130 -950 -809 -531 -1659 -775 -2700
-775 -1162 0 -2102 308 -2990 980 -500 377 -907 779 -1765 1740 -566 633 -855
940 -1161 1230 -839 795 -1610 1279 -2506 1575 -170 57 -389 117 -546 151 -67
14 -128 27 -135 30 -15 4 -15 28 3 364 227 4174 1044 8124 2475 11965 1819
4885 4613 9432 8150 13265 693 750 1610 1667 2360 2360 4296 3964 9483 6988
15028 8761 3684 1177 7399 1802 11352 1909 392 11 1950 4 2315 -9z m-11296
-28331 c811 -222 1645 -548 2426 -949 1862 -958 3385 -2310 4508 -4003 925
-1396 1544 -2986 1821 -4678 44 -265 66 -443 152 -1206 l68 -600 65 12 c231
45 393 58 711 59 323 0 425 -7 625 -46 55 -10 190 -30 299 -44 1239 -157 2191
-697 3320 -1885 220 -232 375 -402 876 -960 681 -759 1137 -1210 1596 -1577
1002 -799 2010 -1212 3274 -1340 253 -26 1029 -26 1280 0 1283 131 2299 551
3313 1370 485 392 907 815 1722 1727 718 804 1101 1193 1506 1532 510 426
1049 737 1599 923 536 182 1144 268 1770 251 1116 -29 1995 -330 2855 -976
490 -368 908 -780 1765 -1740 650 -727 979 -1069 1350 -1406 1060 -959 2130
-1478 3403 -1648 335 -45 439 -51 912 -51 473 0 577 6 912 51 1160 155 2169
609 3123 1405 483 402 848 775 1750 1783 674 754 1068 1147 1490 1485 568 456
1162 767 1777 930 l112 29 7 -66 c9 -82 -2 -1217 -16 -1657 -21 -668 -58
-1342 -106 -1955 -13 -173 -27 -352 -30 -397 l-7 -81 -96 -22 c-150 -35 -454
-124 -609 -180 -784 -281 -1470 -706 -2199 -1362 -340 -306 -706 -688 -1330
-1385 -747 -836 -1064 -1160 -1472 -1510 -1039 -891 -2151 -1277 -3527 -1223
-947 38 -1712 276 -2464 768 -364 238 -664 487 -1069 886 -293 290 -475 485
-946 1011 -557 622 -656 727 -1004 1075 -337 337 -524 508 -791 721 -867 694
-1780 1109 -2810 1278 -674 111 -1413 118 -2085 20 -1164 -169 -2178 -644
-3145 -1474 -434 -372 -791 -737 -1550 -1585 -764 -854 -1126 -1220 -1545
-1563 -795 -652 -1594 -998 -2556 -1107 -348 -40 -856 -44 -1197 -10 -979 98
-1776 429 -2582 1073 -443 354 -801 714 -1610 1617 -527 589 -647 718 -960
1030 -625 626 -1126 1018 -1734 1355 -1081 601 -2378 839 -3756 689 -1058
-115 -2046 -508 -2925 -1164 -317 -236 -574 -460 -919 -800 -307 -303 -533
-543 -991 -1055 -778 -870 -1143 -1242 -1549 -1583 -823 -689 -1649 -1050
-2645 -1157 -326 -35 -832 -37 -1159 -5 -914 90 -1683 391 -2430 953 -295 221
-500 403 -852 756 -284 285 -427 438 -890 956 -739 825 -1095 1192 -1505 1550
-898 785 -1834 1261 -2888 1470 -831 164 -1763 164 -2594 -1 -1052 -207 -1991
-684 -2883 -1464 -422 -369 -776 -733 -1510 -1555 -693 -776 -1032 -1122
-1427 -1461 -1046 -894 -2151 -1278 -3529 -1224 -1282 51 -2271 479 -3299
1427 -212 196 -621 617 -906 933 -146 162 -387 430 -536 595 -847 942 -1393
1444 -2035 1873 -582 389 -1243 678 -1904 832 l-91 21 -7 62 c-12 121 -46 566
-66 857 -59 891 -90 1800 -90 2708 0 447 2 522 14 522 8 0 84 -20 168 -44 599
-172 1149 -466 1698 -907 435 -349 824 -739 1570 -1574 822 -919 1197 -1300
1670 -1694 954 -796 1963 -1250 3123 -1405 335 -45 439 -51 912 -51 473 0 577
6 912 51 1160 155 2169 609 3123 1405 472 393 850 776 1665 1689 592 662 977
1063 1285 1335 1034 914 2002 1308 3300 1341 1131 30 2084 -250 2978 -873 500
-349 1000 -830 1852 -1783 845 -945 1227 -1332 1710 -1731 853 -706 1733
-1130 2750 -1328 378 -73 674 -101 1133 -108 l367 -5 0 8646 c0 7268 2 8646
14 8646 7 0 95 -22 195 -50z m-10635 -16820 c1457 -59 2536 -595 3747 -1862
245 -256 370 -393 769 -838 785 -877 1184 -1281 1650 -1670 1002 -836 2091
-1301 3335 -1424 374 -37 844 -43 1205 -16 1295 100 2365 524 3399 1347 254
203 459 390 792 722 342 342 464 473 954 1021 484 542 601 668 934 1001 459
458 744 698 1131 951 649 425 1309 659 2089 743 323 35 835 37 1158 5 1018
-100 1854 -460 2695 -1162 378 -316 737 -677 1338 -1348 904 -1009 1216 -1332
1645 -1705 913 -794 1829 -1260 2888 -1469 831 -165 1763 -165 2594 0 1098
216 2031 704 2993 1562 345 309 712 690 1350 1402 531 593 649 720 945 1016
529 530 919 842 1396 1115 779 447 1658 648 2662 609 962 -38 1726 -279 2492
-785 569 -376 1061 -841 1990 -1880 884 -988 1328 -1430 1845 -1836 856 -673
1744 -1071 2760 -1238 575 -95 1203 -114 1794 -55 1175 116 2201 532 3156
1280 521 407 958 839 1785 1764 716 801 1026 1122 1405 1456 559 492 1140 843
1724 1040 l99 34 -7 -63 c-4 -34 -27 -213 -52 -397 -132 -993 -312 -2034 -520
-3008 -80 -376 -192 -871 -202 -895 -4 -10 -62 -41 -142 -76 -600 -258 -1193
-645 -1765 -1151 -387 -343 -755 -723 -1435 -1485 -482 -540 -605 -671 -919
-986 -489 -488 -828 -766 -1258 -1031 -646 -399 -1329 -615 -2138 -678 -82 -7
-276 -12 -430 -12 -154 0 -347 5 -430 12 -1023 79 -1848 404 -2663 1046 -244
192 -426 356 -733 663 -314 315 -438 447 -919 986 -797 892 -1180 1278 -1667
1682 -708 588 -1489 1003 -2303 1223 -1157 314 -2524 287 -3645 -71 -792 -252
-1509 -669 -2234 -1298 -382 -331 -735 -690 -1306 -1326 -143 -159 -345 -384
-449 -500 -722 -804 -1202 -1250 -1731 -1607 -874 -592 -1838 -853 -2983 -807
-1156 45 -2086 404 -2987 1154 -430 357 -763 695 -1515 1535 -184 206 -411
458 -504 560 -223 244 -732 752 -921 919 -947 840 -1893 1328 -2985 1540 -815
158 -1735 158 -2550 0 -761 -148 -1459 -435 -2125 -873 -639 -421 -1208 -945
-2070 -1906 -131 -146 -333 -371 -449 -500 -967 -1077 -1573 -1587 -2320
-1957 -601 -296 -1207 -443 -1948 -472 -237 -10 -579 -1 -786 19 -1010 99
-1857 463 -2685 1155 -411 343 -757 695 -1517 1545 -769 859 -1151 1247 -1600
1623 -1005 841 -2051 1302 -3275 1441 -364 42 -952 54 -1285 28 -851 -69
-1552 -256 -2240 -598 -843 -420 -1531 -976 -2470 -1999 -91 -99 -318 -351
-505 -560 -762 -851 -1166 -1254 -1614 -1605 -814 -638 -1637 -961 -2656
-1040 -82 -7 -276 -12 -430 -12 -154 0 -347 5 -430 12 -1036 81 -1873 414
-2700 1075 -410 329 -822 735 -1435 1420 -487 543 -583 649 -751 830 -718 774
-1351 1309 -1994 1684 -163 96 -481 257 -643 326 -106 46 -113 51 -122 84 -13
51 -80 345 -139 611 -236 1064 -448 2280 -600 3440 -21 162 -38 296 -36 298 1
1 59 -18 129 -42 349 -124 675 -287 1006 -504 582 -380 1070 -840 2015 -1897
518 -579 662 -733 994 -1066 185 -184 409 -399 499 -478 822 -717 1609 -1155
2527 -1405 819 -223 1800 -274 2698 -140 928 138 1766 475 2547 1025 630 442
1119 911 2113 2021 751 840 1087 1183 1494 1523 915 766 1857 1139 2993 1184
107 4 206 8 220 9 14 1 132 -3 264 -8z m196 -5441 c1063 -72 1987 -460 2855
-1199 405 -345 723 -671 1475 -1510 776 -867 1149 -1245 1600 -1623 1006 -842
2050 -1302 3275 -1441 364 -42 952 -54 1285 -28 1108 90 2023 398 2900 977
687 454 1216 951 2270 2130 167 187 376 419 464 515 203 222 714 733 873 873
818 719 1599 1106 2536 1257 537 86 1228 84 1769 -5 867 -143 1604 -493 2347
-1113 396 -331 770 -710 1451 -1472 750 -839 1123 -1224 1525 -1575 871 -762
1766 -1231 2775 -1454 855 -190 1892 -197 2750 -20 1105 229 2032 719 2990
1583 335 301 717 700 1340 1396 774 865 1143 1239 1565 1585 1011 830 2089
1187 3426 1134 1163 -45 2088 -407 3014 -1179 392 -327 755 -695 1439 -1460
819 -915 1245 -1348 1708 -1733 843 -701 1751 -1142 2748 -1336 815 -158 1735
-158 2550 0 761 148 1458 434 2125 873 445 293 810 600 1311 1100 322 322 458
469 934 1001 727 814 1072 1168 1460 1500 212 182 550 438 550 417 0 -14 -153
-538 -240 -822 -878 -2865 -2047 -5571 -3538 -8185 -2266 -3975 -5221 -7565
-8702 -10575 -3027 -2617 -6402 -4757 -10071 -6385 -4541 -2017 -9456 -3171
-14479 -3400 -1199 -54 -2542 -54 -3730 0 -6271 289 -12287 1992 -17740 5022
-6087 3383 -11211 8290 -14862 14233 -1667 2715 -3034 5679 -3996 8670 -169
525 -236 747 -429 1415 -6 19 -5 19 23 1 98 -63 338 -249 504 -391 377 -322
734 -688 1415 -1450 809 -905 1275 -1373 1745 -1751 637 -512 1273 -865 1970
-1092 993 -323 2178 -389 3250 -181 761 148 1457 434 2125 873 443 292 815
604 1315 1105 312 312 486 499 1015 1091 695 778 1051 1137 1470 1485 1058
881 2207 1241 3645 1144z"/>
<path d="M9915 55073 c-22 -1 -103 -7 -180 -13 -791 -61 -1495 -304 -2010
-693 -280 -212 -560 -516 -737 -803 -310 -501 -466 -1147 -428 -1775 18 -293
66 -529 155 -757 109 -277 249 -486 476 -708 326 -318 713 -515 1444 -734 292
-88 601 -163 1515 -365 1160 -257 1383 -315 1780 -462 198 -73 516 -225 634
-304 199 -132 358 -346 440 -591 81 -242 108 -629 62 -888 -49 -276 -170 -523
-351 -718 -370 -397 -1028 -655 -1875 -733 -202 -19 -697 -16 -910 5 -482 48
-843 145 -1182 317 -535 273 -893 714 -1062 1310 -60 211 -85 358 -122 717
l-5 52 -681 0 -681 0 6 -212 c22 -785 251 -1452 687 -1998 109 -136 355 -382
495 -493 739 -591 1696 -877 2935 -877 828 0 1556 129 2235 395 303 118 626
282 834 420 745 496 1113 1264 1113 2320 0 731 -193 1288 -605 1744 -321 354
-748 607 -1370 810 -271 88 -437 129 -1377 340 -1482 333 -1940 452 -2365 616
-457 176 -718 450 -815 855 -58 248 -45 551 37 815 34 113 141 323 221 435 94
133 303 341 422 419 213 142 452 235 757 295 505 101 1210 97 1713 -9 339 -72
621 -185 859 -346 274 -184 451 -386 591 -674 116 -239 190 -502 256 -912 l5
-33 681 0 681 0 -6 188 c-24 735 -236 1352 -626 1822 -199 239 -459 446 -810
643 -589 330 -1278 522 -2071 577 -130 9 -665 11 -765 3z"/>
<path d="M70925 55073 c-22 -1 -103 -7 -180 -13 -791 -61 -1495 -304 -2010
-693 -280 -212 -560 -516 -737 -803 -310 -501 -466 -1147 -428 -1775 18 -293
66 -529 155 -757 109 -277 249 -486 476 -708 326 -318 713 -515 1444 -734 292
-88 601 -163 1515 -365 1160 -257 1383 -315 1780 -462 198 -73 516 -225 634
-304 199 -132 358 -346 440 -591 81 -242 108 -629 62 -888 -49 -276 -170 -523
-351 -718 -370 -397 -1028 -655 -1875 -733 -202 -19 -697 -16 -910 5 -482 48
-843 145 -1182 317 -535 273 -893 714 -1062 1310 -60 211 -85 358 -122 717
l-5 52 -681 0 -681 0 6 -212 c22 -785 251 -1452 687 -1998 109 -136 355 -382
495 -493 739 -591 1696 -877 2935 -877 828 0 1556 129 2235 395 303 118 626
282 834 420 745 496 1113 1264 1113 2320 0 731 -193 1288 -605 1744 -321 354
-748 607 -1370 810 -271 88 -437 129 -1377 340 -1482 333 -1940 452 -2365 616
-457 176 -718 450 -815 855 -58 248 -45 551 37 815 34 113 141 323 221 435 94
133 303 341 422 419 213 142 452 235 757 295 505 101 1210 97 1713 -9 339 -72
621 -185 859 -346 274 -184 451 -386 591 -674 116 -239 190 -502 256 -912 l5
-33 681 0 681 0 -6 188 c-24 735 -236 1352 -626 1822 -199 239 -459 446 -810
643 -589 330 -1278 522 -2071 577 -130 9 -665 11 -765 3z"/>
<path d="M17610 49730 l0 -5080 735 0 735 0 0 2375 0 2375 2735 0 2735 0 0
-2375 0 -2375 735 0 735 0 0 5080 0 5080 -735 0 -735 0 0 -2100 0 -2100 -2735
0 -2735 0 0 2100 0 2100 -735 0 -735 0 0 -5080z"/>
<path d="M45060 49730 l0 -5080 725 0 725 0 0 2181 0 2180 1788 -4 c1268 -3
1820 -7 1902 -15 500 -51 758 -131 992 -307 286 -216 462 -561 517 -1015 6
-47 33 -526 61 -1065 52 -1021 71 -1316 96 -1498 19 -137 56 -281 97 -377 l32
-75 893 -3 892 -2 0 114 0 115 -58 31 c-252 134 -404 427 -466 895 -28 213
-35 350 -66 1172 -16 444 -34 867 -40 938 -36 444 -138 801 -293 1029 -170
251 -496 496 -874 657 -56 24 -100 46 -97 50 2 4 46 30 97 56 398 210 767 536
999 883 185 277 308 626 363 1025 23 164 31 574 16 757 -119 1411 -1036 2227
-2701 2403 -316 33 -474 35 -3032 35 l-2568 0 0 -5080z m5135 3890 c605 -38
982 -177 1276 -469 251 -250 383 -567 420 -1006 20 -237 -2 -575 -52 -785 -86
-369 -260 -639 -524 -815 -289 -193 -631 -304 -1107 -362 -129 -15 -312 -17
-1920 -20 l-1778 -4 0 1736 0 1735 1763 0 c1058 0 1826 -4 1922 -10z"/>
<path d="M56640 49730 l0 -5080 705 0 705 0 0 1769 0 1770 852 768 c468 422
859 773 869 780 14 11 239 -285 1920 -2537 l1904 -2549 948 0 c807 -1 947 1
940 13 -4 8 -1047 1369 -2318 3026 -1270 1656 -2310 3015 -2310 3019 0 4 1008
916 2240 2026 1232 1109 2253 2030 2270 2046 l30 29 -1011 0 -1011 0 -2659
-2480 -2659 -2480 -3 2480 -2 2480 -705 0 -705 0 0 -5080z"/>
<path d="M19050 15973 c-52 -69 -96 -130 -98 -134 -2 -4 29 -51 69 -105 101
-137 123 -183 127 -266 4 -59 0 -76 -23 -124 -15 -30 -53 -88 -84 -127 -195
-244 -1693 -2063 -1741 -2113 -123 -128 -189 -133 -419 -34 -121 52 -146 60
-155 48 -6 -8 -54 -63 -106 -122 -52 -59 -96 -110 -97 -114 -2 -9 1583 -1277
1596 -1277 6 0 53 59 105 130 79 109 92 132 82 145 -123 146 -219 267 -240
302 -59 101 -53 196 18 301 22 34 155 198 294 364 l253 302 202 -161 c111 -89
249 -193 307 -231 331 -218 674 -321 965 -288 286 32 523 156 745 388 221 231
368 507 415 777 67 388 -85 793 -426 1135 -120 121 -189 176 -549 439 -162
119 -485 369 -718 554 -232 186 -423 338 -425 338 -1 0 -45 -57 -97 -127z
m1131 -1161 c73 -47 163 -153 208 -244 112 -228 62 -493 -154 -818 -201 -302
-453 -517 -669 -569 -75 -18 -201 -15 -273 7 -85 27 -133 56 -279 173 l-126
101 20 21 c10 12 257 308 547 657 290 349 539 645 554 658 57 50 108 54 172
14z"/>
<path d="M63670 15509 c-225 -26 -470 -126 -710 -290 -113 -77 -232 -176 -484
-405 -315 -285 -303 -275 -726 -612 -217 -173 -400 -320 -407 -326 -12 -11 3
-31 153 -203 l54 -61 112 50 c237 105 327 98 454 -34 49 -50 1663 -2129 1732
-2230 39 -56 62 -118 62 -163 0 -58 -29 -117 -116 -237 -46 -65 -87 -124 -90
-132 -5 -12 173 -275 186 -276 3 0 199 154 435 343 237 188 597 475 802 638
l372 296 -111 126 -110 126 -188 -94 c-215 -106 -268 -120 -346 -90 -25 9 -70
40 -99 69 -30 28 -198 242 -374 474 l-321 424 109 84 c61 46 114 84 119 84 5
0 101 -45 213 -99 630 -306 1098 -473 1424 -511 306 -34 605 32 838 187 83 55
221 183 282 263 48 62 105 160 105 180 0 12 -116 228 -142 263 -12 17 -17 17
-93 -3 -174 -45 -442 -43 -730 5 -277 46 -792 182 -1200 316 -181 59 -216 73
-211 87 3 9 23 69 45 132 57 161 81 282 88 440 9 221 -24 394 -112 578 -164
342 -455 563 -793 602 -98 11 -116 11 -222 -1z m-320 -761 c237 -56 538 -336
694 -646 86 -171 117 -346 82 -466 -22 -74 -58 -114 -259 -279 -133 -109 -161
-127 -171 -116 -7 8 -168 219 -358 469 -189 250 -395 521 -456 602 -104 138
-112 151 -112 193 0 37 6 51 36 84 70 79 204 151 315 170 59 11 159 6 229 -11z"/>
<path d="M60000 13068 l-125 -139 -1045 -625 c-575 -344 -1055 -632 -1067
-640 -22 -14 -22 -14 63 -147 47 -72 89 -135 93 -139 3 -4 65 8 136 27 215 58
288 46 384 -61 64 -72 1463 -2461 1486 -2538 36 -121 15 -172 -141 -339 l-113
-121 33 -61 c18 -33 53 -97 77 -142 24 -46 48 -83 52 -83 4 0 342 200 750 444
573 342 862 508 1270 727 290 155 527 288 527 294 0 15 -276 1105 -281 1110
-3 2 -71 -3 -151 -12 l-147 -16 -5 -41 c-3 -23 -10 -180 -16 -351 -6 -170 -15
-332 -20 -360 -24 -139 -32 -146 -481 -446 -216 -143 -395 -257 -399 -252 -5
4 -170 291 -368 638 l-361 629 262 149 c309 175 370 207 397 207 11 0 91 -58
179 -130 87 -71 162 -130 166 -130 10 0 245 131 245 136 0 2 -142 244 -316
538 l-316 534 -102 -66 c-55 -36 -107 -71 -114 -77 -11 -10 -10 -45 7 -204 11
-106 17 -198 15 -206 -3 -8 -29 -32 -57 -53 -64 -49 -557 -366 -561 -361 -25
34 -485 854 -570 1016 -129 247 -136 271 -88 323 26 29 413 241 522 287 40 16
75 23 126 23 107 0 182 -42 434 -244 114 -91 209 -161 215 -156 6 4 61 46 122
94 l113 88 -144 211 c-393 578 -547 802 -554 804 -4 1 -63 -62 -132 -139z"/>
<path d="M23180 12729 c-370 -42 -740 -201 -1049 -452 -301 -244 -594 -641
-762 -1032 -135 -315 -198 -602 -199 -902 0 -475 169 -899 495 -1241 419 -440
1023 -711 1583 -712 792 -1 1523 505 1951 1349 288 568 351 1121 185 1621 -93
280 -238 505 -470 731 -467 454 -1147 704 -1734 638z m765 -574 c54 -9 109
-29 170 -59 152 -76 246 -169 315 -311 48 -99 68 -178 80 -305 27 -319 -73
-702 -305 -1169 -416 -832 -900 -1315 -1345 -1338 -127 -7 -219 13 -340 74
-76 38 -111 63 -176 128 -68 68 -89 97 -127 176 -69 144 -82 212 -82 419 0
197 18 310 81 518 123 406 416 952 697 1302 100 124 294 315 390 383 138 98
295 167 422 186 88 13 131 12 220 -4z"/>
<path d="M56175 10869 c-346 -147 -644 -275 -662 -283 l-32 -15 70 -148 c38
-81 71 -149 73 -150 1 -2 66 8 145 22 174 31 267 32 320 6 44 -23 102 -85 129
-138 11 -21 187 -438 392 -928 205 -489 379 -905 387 -923 l14 -33 -43 27
c-24 15 -572 360 -1218 767 -646 406 -1178 742 -1182 745 -4 4 -17 83 -29 175
-19 142 -25 167 -38 162 -122 -45 -1391 -593 -1391 -600 0 -6 32 -75 70 -154
l70 -143 33 5 c99 17 232 29 269 23 60 -9 138 -47 187 -91 42 -39 108 -135
136 -201 78 -182 997 -2464 1009 -2505 24 -78 20 -136 -11 -198 -21 -44 -46
-69 -136 -140 -61 -47 -118 -93 -129 -101 -17 -14 -16 -21 37 -164 30 -82 55
-151 55 -153 0 -2 5 -3 12 -3 13 0 1309 549 1319 559 8 8 -126 294 -139 299
-5 1 -72 -9 -147 -23 -281 -51 -362 -28 -442 129 -34 67 -813 1969 -809 1974
2 2 651 -407 1442 -909 792 -502 1460 -925 1486 -941 l47 -29 283 191 c156
106 289 197 296 204 11 11 -28 80 -212 383 -123 204 -231 384 -240 401 -26 50
-933 2333 -950 2391 -22 75 -21 163 3 210 27 52 60 85 179 175 56 44 102 82
102 85 0 15 -113 311 -119 310 -3 0 -289 -122 -636 -270z"/>
<path d="M27980 10316 c-715 -109 -1288 -574 -1626 -1318 -123 -270 -219 -623
-243 -888 -76 -828 318 -1523 1070 -1892 864 -425 1754 -296 2391 345 353 355
624 889 723 1422 104 561 3 1071 -294 1489 -69 98 -230 267 -331 349 -291 235
-680 409 -1070 479 -146 26 -490 34 -620 14z m735 -511 c98 -20 237 -92 312
-160 189 -171 273 -430 260 -805 -9 -262 -63 -528 -172 -855 -281 -842 -666
-1363 -1085 -1472 -85 -22 -235 -22 -320 0 -270 71 -447 258 -528 556 -24 90
-26 111 -26 336 -1 272 9 351 76 620 123 492 360 1023 596 1335 31 41 100 118
152 171 232 234 481 327 735 274z"/>
<path d="M51097 8980 c-511 -147 -931 -270 -933 -273 -3 -3 18 -75 46 -161
l51 -156 153 0 c234 0 301 -31 364 -167 20 -44 168 -563 398 -1399 386 -1402
394 -1437 365 -1527 -18 -53 -74 -103 -215 -190 -69 -43 -126 -82 -126 -87 0
-11 70 -313 73 -316 3 -3 1856 532 1861 537 2 2 -20 74 -49 159 l-52 155 -144
1 c-80 0 -162 4 -184 8 -93 18 -168 84 -204 180 -34 92 -720 2733 -727 2799
-13 134 28 193 218 306 67 41 124 75 125 75 6 3 -75 320 -82 322 -6 1 -428
-118 -938 -266z"/>
<path d="M31905 8936 c-10 -45 -25 -118 -35 -163 l-18 -82 119 -67 c143 -82
181 -111 217 -172 24 -42 27 -56 26 -137 0 -86 -18 -156 -358 -1440 -196 -742
-366 -1370 -377 -1394 -30 -68 -64 -107 -116 -132 -41 -20 -70 -24 -217 -30
-105 -5 -172 -12 -176 -19 -14 -23 -93 -300 -87 -306 3 -3 378 -99 834 -213
702 -176 912 -233 1381 -375 304 -93 554 -166 556 -165 20 27 646 1051 646
1058 0 7 -69 69 -207 185 l-33 27 -306 -278 c-306 -278 -377 -335 -444 -353
-67 -19 -147 -9 -504 59 -284 54 -362 72 -373 87 -7 10 -13 39 -13 64 0 30
138 548 396 1481 438 1588 424 1545 519 1604 l48 30 201 5 200 5 48 155 c26
85 46 155 45 157 -1 1 -442 112 -979 246 l-976 244 -17 -81z"/>
<path d="M47240 8149 c-136 -16 -321 -51 -565 -106 -473 -107 -557 -123 -1038
-201 -268 -44 -489 -81 -491 -83 -5 -5 57 -316 64 -322 3 -3 73 -14 156 -26
99 -13 167 -27 198 -41 80 -38 131 -114 155 -231 26 -128 411 -2753 411 -2801
0 -136 -33 -175 -242 -279 l-160 -80 6 -32 c3 -18 11 -88 17 -157 7 -69 15
-128 19 -133 11 -13 2025 318 2174 357 755 199 1278 711 1456 1425 52 206 65
323 64 571 0 373 -60 680 -195 1008 -266 640 -817 1052 -1514 1132 -106 12
-408 11 -515 -1z m103 -475 c92 -20 234 -88 314 -148 337 -255 581 -801 687
-1536 41 -286 46 -643 12 -829 -75 -405 -265 -653 -576 -750 -79 -24 -618
-136 -625 -129 -11 11 -456 3146 -452 3181 19 145 178 224 455 226 70 1 141
-5 185 -15z"/>
<path d="M39285 7820 c-508 -43 -874 -371 -961 -860 -20 -115 -20 -323 1 -425
38 -184 115 -358 264 -594 50 -79 91 -145 91 -147 0 -2 -6 -4 -12 -4 -25 0
-279 -130 -362 -185 -334 -223 -518 -501 -572 -866 -76 -513 181 -963 663
-1162 318 -130 741 -164 1112 -87 212 44 464 151 646 273 l79 54 107 -91 c58
-50 148 -122 200 -159 117 -84 346 -199 461 -231 176 -50 353 -58 505 -21 86
21 230 89 237 112 16 56 57 287 53 298 -3 7 -18 16 -34 19 -42 11 -198 87
-278 136 -170 104 -352 260 -559 481 l-105 111 30 47 c45 75 174 347 212 451
86 233 145 467 177 705 39 291 46 317 99 378 51 58 98 73 271 92 85 9 167 18
181 21 26 5 26 7 44 155 10 82 16 151 14 153 -2 2 -290 17 -639 35 -349 17
-678 34 -731 38 l-97 6 19 56 c105 305 35 669 -174 897 -209 228 -561 346
-942 314z m428 -460 c80 -30 168 -113 206 -194 51 -109 68 -226 52 -366 -20
-175 -68 -321 -160 -481 -45 -78 -47 -84 -27 -86 34 -4 796 -53 824 -53 l25 0
-7 -97 c-10 -138 -41 -382 -72 -553 -26 -148 -116 -517 -132 -546 -7 -13 -17
-7 -54 38 -181 213 -858 1108 -1015 1340 -164 244 -223 390 -223 552 1 236
113 408 300 461 75 21 206 14 283 -15z m-717 -2007 c242 -342 653 -879 863
-1127 l75 -89 -39 -34 c-69 -59 -183 -125 -273 -156 -75 -26 -105 -31 -214
-35 -155 -5 -243 12 -359 70 -171 85 -297 259 -355 489 -21 87 -30 381 -15
491 14 93 42 212 73 303 26 77 109 255 118 255 4 0 61 -75 126 -167z"/>
</g>
</svg>
